<?xml version="1.0" encoding="utf-8"?>
<!-- Generator: Adobe Illustrator 24.2.3, SVG Export Plug-In . SVG Version: 6.00 Build 0)  -->
<svg version="1.1" xmlns="http://www.w3.org/2000/svg" xmlns:xlink="http://www.w3.org/1999/xlink" x="0px" y="0px"
	 viewBox="0 0 360 360" style="enable-background:new 0 0 360 360;" xml:space="preserve">
<style type="text/css">
	.st0{fill:#FFFFFF;}
	.st1{fill:#29ABE2;}
</style>
<g id="Layer_2">
</g>
<g id="Layer_1">
	<g>
		<path class="st0" d="M307.1,233.2H52.9c-11.4,0-20.6-9.2-20.6-20.6V61c0-11.4,9.2-20.6,20.6-20.6h254.2c11.4,0,20.6,9.2,20.6,20.6
			v151.6C327.7,224,318.5,233.2,307.1,233.2z"/>
		<path class="st0" d="M2.7,238.1c0,0,0,23.5,15.5,24.4s21.5,0.9,21.5,0.9h301.1c0,0,12.2-4,14.2-8.9c2-4.9,1.3-16.4,1.3-16.4H2.7z"
			/>
		<g>
			<path class="st1" d="M307.8,239.1h-255c-12.8,0-23.3-10.4-23.3-23.3V60.4c0-12.8,10.4-23.3,23.3-23.3h255
				c12.8,0,23.3,10.4,23.3,23.3v155.4C331,228.6,320.6,239.1,307.8,239.1z M52.8,42.5c-9.8,0-17.8,8-17.8,17.8v155.4
				c0,9.8,8,17.8,17.8,17.8h255c9.8,0,17.8-8,17.8-17.8V60.4c0-9.8-8-17.8-17.8-17.8H52.8z"/>
		</g>
		<g>
			<path class="st1" d="M310.2,210.7H50.4c-1.4,0-2.6-1.2-2.6-2.6V186c0-1.4,1.2-2.6,2.6-2.6s2.6,1.2,2.6,2.6v19.5h254.5V62.8H53
				v66.3c0,1.4-1.2,2.6-2.6,2.6s-2.6-1.2-2.6-2.6V60.2c0-1.4,1.2-2.6,2.6-2.6h259.7c1.4,0,2.6,1.2,2.6,2.6v147.9
				C312.8,209.6,311.6,210.7,310.2,210.7z"/>
		</g>
		<g>
			<path class="st1" d="M340.1,265.5H20.3c-10.6,0-19.2-8.5-19.2-19v-10.1h358.5v10.1C359.5,256.9,350.8,265.5,340.1,265.5z
				 M6.5,241.8v4.7c0,7.5,6.2,13.6,13.8,13.6h319.8c7.7,0,14-6.1,14-13.6v-4.7H6.5z"/>
		</g>
		<g>
			<path class="st1" d="M0.6,237.1L29,218.8h301l29.7,17.7L0.6,237.1z"/>
		</g>
		<g>
			<ellipse class="st1" cx="180.2" cy="50.6" rx="4.5" ry="4.4"/>
		</g>
		<g>
			<g>
				<path class="st0" d="M142.2,73.8h114.7c14.1,0,25.4,11.4,25.4,25.4v193.4c0,14.1-11.4,25.4-25.4,25.4H142.2
					c-14.1,0-25.4-11.4-25.4-25.4V99.2C116.7,85.2,128.1,73.8,142.2,73.8z"/>
				<path class="st1" d="M256.8,320.8H142.2c-15.5,0-28.2-12.6-28.2-28.2V99.2c0-15.5,12.6-28.2,28.2-28.2h114.6
					c15.5,0,28.2,12.6,28.2,28.2v193.4C285,308.2,272.4,320.8,256.8,320.8z M142.2,76.5c-12.5,0-22.7,10.2-22.7,22.7v193.4
					c0,12.5,10.2,22.7,22.7,22.7h114.6c12.5,0,22.7-10.2,22.7-22.7V99.2c0-12.5-10.2-22.7-22.7-22.7H142.2z"/>
			</g>
			<g>
				<polyline class="st0" points="252.1,99.2 262.5,99.2 262.5,283.5 136.5,283.5 136.5,99.2 202.1,99.2 				"/>
				<path class="st1" d="M262.5,286.2h-126c-1.5,0-2.7-1.2-2.7-2.7V99.2c0-1.5,1.2-2.7,2.7-2.7h65.6c1.5,0,2.7,1.2,2.7,2.7
					c0,1.5-1.2,2.7-2.7,2.7h-62.8v178.8h120.5V101.9h-7.7c-1.5,0-2.7-1.2-2.7-2.7c0-1.5,1.2-2.7,2.7-2.7h10.4c1.5,0,2.7,1.2,2.7,2.7
					v184.3C265.2,285,264,286.2,262.5,286.2z"/>
			</g>
		</g>
		<g>
			<ellipse class="st1" cx="199.3" cy="87" rx="3.9" ry="3.8"/>
		</g>
		<g>
			<rect x="300.6" y="235.7" class="st1" width="57.7" height="3.1"/>
		</g>
		<g id="mobile">
			<g>
				<g>
					<path class="st0" d="M89.9,180.2h64.9c9,0,16.4,7.3,16.4,16.4V321c0,9-7.3,16.4-16.4,16.4H89.9c-9,0-16.4-7.3-16.4-16.4V196.6
						C73.6,187.6,80.9,180.2,89.9,180.2z"/>
					<path class="st1" d="M154.9,340.1H89.9c-10.5,0-19.1-8.6-19.1-19.1V196.6c0-10.5,8.6-19.1,19.1-19.1h64.9
						c10.5,0,19.1,8.6,19.1,19.1V321C173.9,331.5,165.4,340.1,154.9,340.1z M89.9,183c-7.5,0-13.6,6.1-13.6,13.6V321
						c0,7.5,6.1,13.6,13.6,13.6h64.9c7.5,0,13.6-6.1,13.6-13.6V196.6c0-7.5-6.1-13.6-13.6-13.6H89.9z"/>
				</g>
				<g>
					<polyline class="st0" points="159.6,305.1 159.6,315.1 85.2,315.1 85.2,196.6 159.6,196.6 159.6,233.9 					"/>
					<path class="st1" d="M159.6,317.8H85.2c-1.5,0-2.7-1.2-2.7-2.7V196.6c0-1.5,1.2-2.7,2.7-2.7h74.3c1.5,0,2.7,1.2,2.7,2.7v37.4
						c0,1.5-1.2,2.7-2.7,2.7s-2.7-1.2-2.7-2.7v-34.6H88v113.1h68.9v-7.3c0-1.5,1.2-2.7,2.7-2.7s2.7,1.2,2.7,2.7v10
						C162.3,316.6,161.1,317.8,159.6,317.8z"/>
				</g>
			</g>
			<g>
				<line class="st0" x1="159.2" y1="246.9" x2="159.2" y2="278.7"/>
				<path class="st1" d="M159.2,281.5c-1.5,0-2.7-1.2-2.7-2.7v-31.8c0-1.5,1.2-2.7,2.7-2.7s2.7,1.2,2.7,2.7v31.8
					C162,280.2,160.7,281.5,159.2,281.5z"/>
			</g>
			<g>
				<line class="st0" x1="159.1" y1="288.6" x2="159.1" y2="294.8"/>
				<path class="st1" d="M159.1,297.5c-1.5,0-2.7-1.2-2.7-2.7v-6.1c0-1.5,1.2-2.7,2.7-2.7c1.5,0,2.7,1.2,2.7,2.7v6.1
					C161.8,296.3,160.6,297.5,159.1,297.5z"/>
			</g>
			<g>
				<line class="st0" x1="113.3" y1="326.3" x2="131.7" y2="326.3"/>
				<path class="st1" d="M131.7,329.3h-18.4c-1.7,0-3-1.4-3-3s1.4-3,3-3h18.4c1.7,0,3,1.4,3,3S133.4,329.3,131.7,329.3z"/>
			</g>
		</g>
		<g>
			<path class="st1" d="M208.5,304h-18.4c-1.7,0-3-1.4-3-3c0-1.7,1.4-3,3-3h18.4c1.7,0,3,1.4,3,3C211.6,302.6,210.2,304,208.5,304z"
				/>
		</g>
		<g>
			<line class="st0" x1="210.9" y1="99.2" x2="241.9" y2="99.2"/>
			<path class="st1" d="M241.9,101.9h-31c-1.5,0-2.7-1.2-2.7-2.7c0-1.5,1.2-2.7,2.7-2.7h31c1.5,0,2.7,1.2,2.7,2.7
				C244.6,100.7,243.4,101.9,241.9,101.9z"/>
		</g>
		<g>
			<path class="st1" d="M50.5,181.2c-1.4,0-2.6-1.2-2.6-2.6V177c0-1.4,1.2-2.6,2.6-2.6s2.6,1.2,2.6,2.6v1.6
				C53.1,180.1,51.9,181.2,50.5,181.2z"/>
		</g>
		<g>
			<path class="st1" d="M50.5,161.1c-1.4,0-2.6-1.2-2.6-2.6v-22.8c0-1.4,1.2-2.6,2.6-2.6s2.6,1.2,2.6,2.6v22.8
				C53.1,160,51.9,161.1,50.5,161.1z"/>
		</g>
	</g>
</g>
</svg>
