<?xml version="1.0" encoding="utf-8"?>
<!-- Generator: Adobe Illustrator 24.2.3, SVG Export Plug-In . SVG Version: 6.00 Build 0)  -->
<svg version="1.1" id="Layer_1" xmlns="http://www.w3.org/2000/svg" xmlns:xlink="http://www.w3.org/1999/xlink" x="0px" y="0px"
	 viewBox="0 0 360 360" style="enable-background:new 0 0 360 360;" xml:space="preserve">
<style type="text/css">
	.st0{fill:#29ABE2;}
</style>
<g>
	<path id="Path_726" class="st0" d="M325.8,42.57V42.2c-5.51-7.17-12-13.54-19.27-18.92v0.37c-6.07,4.64-12.14,9.62-17.85,14.63
		c-2.5-1.43-4.64-2.5-6.78-3.57c-2.82-1.56-5.81-2.75-8.92-3.57c-1.03-0.41-2.11-0.65-3.21-0.71c-0.71-7.85-1.43-15.71-2.5-23.56
		c-3.67-0.55-7.36-0.9-11.07-1.07h-5.71c-3.35,0.16-6.68,0.52-9.99,1.07c-1.07,7.5-1.78,15.35-2.14,23.2
		c-1.33,0.06-2.65,0.3-3.93,0.71c-0.39-0.04-0.79,0.09-1.07,0.37c-2.97,0.88-5.85,2.08-8.57,3.57c-2.37,0.97-4.64,2.17-6.78,3.57
		c-6.07-5-11.78-9.62-17.85-14.63l-0.37-0.37c-1.38,0.98-2.69,2.05-3.93,3.21c-2.39,1.74-4.55,3.78-6.42,6.07
		c-3.13,3.08-5.99,6.43-8.57,9.99h0.37c4.64,6.07,9.62,11.78,14.63,17.85c-1.44,2.18-2.75,4.45-3.93,6.78
		c-1.39,2.85-2.47,5.84-3.22,8.91c-0.64,1.21-1.01,2.55-1.07,3.93c-7.85,0.71-15.71,1.43-23.2,2.5c-0.73,3.64-1.08,7.35-1.07,11.07
		c-0.07,5.27,0.41,10.54,1.43,15.71c7.5,0.71,14.99,1.43,22.85,2.14c-0.03,1.38,0.34,2.75,1.07,3.93c0.75,3.2,1.83,6.31,3.21,9.28
		c1.22,2.5,2.65,4.89,4.28,7.14c-5,6.07-9.99,11.78-14.63,17.85c5.31,7.45,11.82,13.96,19.27,19.27v-0.37
		c5.71-4.64,11.78-9.62,17.49-14.63h0.37c1.78,1.07,3.93,2.14,5.71,3.21c3.21,1.5,6.55,2.7,9.99,3.57c1.43,0.37,2.5,0.71,3.57,1.07
		c0.71,7.5,1.43,15.35,2.5,23.2c3.31,0.43,6.65,0.67,9.99,0.71h5.35c3.95,0,7.89-0.36,11.78-1.07c0.71-7.5,1.43-15.35,2.14-23.2
		l3.21-1.07c3.1-0.69,6.1-1.77,8.92-3.21c2.65-1.15,5.16-2.59,7.5-4.28c0,0.37,0,0.37,0.37,0.37c5.71,5,11.78,9.99,17.85,14.63
		c1.07-0.71,2.14-1.43,3.57-2.5c2.2-1.84,4.23-3.87,6.07-6.07c3.37-3.32,6.47-6.9,9.28-10.71c-5-6.07-9.99-12.14-14.99-17.85v-0.37
		c1.07-1.78,2.14-3.93,3.21-6.07c1.23-2.79,2.3-5.65,3.21-8.57c0-0.37,0-0.71,0.37-0.71c-0.02-1.11,0.23-2.21,0.71-3.21
		c7.85-0.71,15.71-1.43,23.2-2.14c0.71-3.57,0.71-7.14,1.07-10.71v-6.07c-0.37-3.57-0.37-7.14-1.07-10.71
		c-7.5-0.71-15.35-1.43-23.2-2.14c-0.41-1.03-0.65-2.11-0.71-3.21c-1.07-3.21-2.14-6.42-3.57-9.62c-1.07-2.14-2.5-4.64-3.57-6.78
		C315.81,54.71,320.8,48.64,325.8,42.57z M230.5,72.2c5.9-6.53,14.41-10.06,23.2-9.62c8.89-0.45,17.52,3.08,23.56,9.62
		c6.25,6.09,9.73,14.47,9.62,23.2c0.16,18.17-14.44,33.04-32.62,33.2c-0.19,0-0.39,0-0.58,0c-8.73,0.11-17.11-3.37-23.2-9.62
		c-6.26-6.23-9.73-14.73-9.62-23.56C220.75,86.68,224.23,78.29,230.5,72.2z"/>
	<path id="Path_727" class="st0" d="M254.05,67.2c-15.61,0.04-28.23,12.74-28.19,28.35c0.02,7.44,2.97,14.56,8.21,19.84
		c10.52,11.04,27.99,11.45,39.03,0.94c0.32-0.3,0.63-0.62,0.94-0.94c5.43-5.2,8.41-12.46,8.21-19.98c0.2-7.52-2.78-14.78-8.21-19.98
		C268.74,70.13,261.55,67.17,254.05,67.2z M239.06,80.41c8.36-8.08,21.62-8.08,29.97,0c4.08,3.9,6.29,9.36,6.07,14.99
		c0.29,5.65-1.93,11.14-6.07,14.99c-8.17,8.28-21.51,8.37-29.79,0.2c-4.06-4.01-6.32-9.49-6.27-15.19
		C233,89.8,235.17,84.43,239.06,80.41z"/>
	<path id="Path_728" class="st0" d="M162.32,125.75c-1.09-0.63-2.31-1-3.57-1.07c-4.28-1.07-8.57-1.78-12.85-2.5
		c-3.93,9.62-7.14,18.92-10.36,28.2h-6.42c-4.28,0.37-8.21,0.71-12.14,1.43c-3.28,0.5-6.51,1.33-9.62,2.5
		c-5.71-8.21-11.78-16.42-17.49-24.27l-0.37-0.37c-2.11,0.61-4.14,1.45-6.07,2.5c-3.51,1.43-6.86,3.22-9.99,5.35
		c-5.07,2.54-9.75,5.78-13.92,9.62v0.37c4.28,8.92,8.21,17.85,12.49,26.77c-2.45,2.33-4.71,4.84-6.79,7.51
		c-2.89,3.02-5.41,6.37-7.5,9.99c-1.04,1.42-1.88,2.99-2.5,4.64c-9.99-1.78-19.98-3.57-29.97-5c-1.78,4.28-3.57,8.57-5,13.21
		c-1.44,7.15-2.87,13.93-3.58,20.71l27.84,10.71v5c-0.04,4.21,0.44,8.4,1.42,12.49c0.49,3.64,1.33,7.23,2.5,10.71
		c-8.21,5.71-16.06,11.42-24.27,17.49c4.43,10.75,10.31,20.83,17.49,29.97h0.37c8.92-4.28,17.85-8.21,27.13-12.49
		c2.14,2.14,4.28,3.93,6.42,6.07c3.53,2.99,7.35,5.62,11.4,7.86c1.07,0.71,2.5,1.43,3.93,2.5c-1.78,9.62-3.21,19.63-4.64,29.63
		c3.91,1.8,7.97,3.23,12.14,4.28c2.22,0.75,4.48,1.34,6.78,1.78c4.81,1.26,9.7,2.22,14.63,2.86c3.93-9.62,7.5-18.92,10.71-28.55
		h4.64c4.07,0.01,8.13-0.34,12.14-1.07c3.57-0.71,7.14-1.78,10.71-2.86c-0.01,0.19,0.13,0.36,0.32,0.37c0.02,0,0.03,0,0.05,0
		c5.71,8.21,11.78,16.42,17.49,24.63c1.78-1.07,3.57-1.78,5-2.5c3.43-1.45,6.77-3.12,9.99-5c5.28-3.16,10.29-6.74,14.99-10.71
		c-3.93-9.28-8.21-18.21-12.49-27.49c2.14-2.14,3.93-4.28,6.07-6.42c2.5-3.21,5-6.78,7.14-9.99c0-0.37,0.37-0.71,0.37-1.07
		c0.71-1.07,1.43-2.5,2.14-3.57c9.99,1.78,19.98,3.21,29.97,5c1.78-4.28,3.21-8.57,4.64-13.21c0.37-1.07,0.71-2.14,1.07-3.57
		c0.24-1.22,0.6-2.42,1.07-3.57c0.71-4.64,1.78-9.28,2.14-13.56c-9.29-3.94-18.91-7.14-28.2-10.73v-4.28
		c0.05-4.45-0.43-8.89-1.44-13.22c-0.54-3.24-1.26-6.45-2.14-9.62c8.21-5.71,16.42-11.78,24.27-17.85h0.37
		c-4.28-10.89-10.31-21.02-17.85-29.97c-9.28,3.93-18.21,8.21-27.13,12.49c-2.5-2.5-5-5-7.5-7.14c-3.1-2.58-6.45-4.85-9.99-6.78
		c-1.1-0.95-2.3-1.79-3.57-2.5c1.43-9.99,3.21-19.98,4.64-29.97c-4.28-1.78-8.92-3.57-13.57-5c-1.15-0.41-2.35-0.65-3.57-0.71
		L162.32,125.75z M95.93,259.25c-5.99-9.72-7.55-21.54-4.28-32.48c2.71-11.1,9.96-20.56,19.98-26.06
		c9.71-5.65,21.27-7.19,32.13-4.28c11.09,2.74,20.53,9.99,26.06,19.98c11.78,20.31,4.92,46.32-15.35,58.18
		c-9.74,5.95-21.54,7.51-32.48,4.28C110.93,276.26,101.48,269.14,95.93,259.25z"/>
	<path id="Path_729" class="st0" d="M98.07,228.55c-2.91,9.2-1.74,19.21,3.21,27.49h0.37c4.73,8.49,12.73,14.68,22.13,17.13
		c19.51,5.3,39.64-6.2,44.98-25.7v-0.37c2.49-9.31,1.08-19.24-3.93-27.49c-4.62-8.59-12.66-14.81-22.13-17.13
		c-9.37-2.79-19.48-1.5-27.84,3.57C106.26,210.75,100.13,218.96,98.07,228.55z M119.48,214.27c6.17-3.91,13.73-4.96,20.72-2.86
		c14.63,3.91,23.39,18.88,19.63,33.55c-1.92,6.97-6.56,12.88-12.87,16.41v0.37c-6.27,3.64-13.76,4.54-20.72,2.5
		c-7.19-1.65-13.3-6.34-16.75-12.86c-3.62-6.27-4.65-13.71-2.86-20.72C108.66,223.75,113.26,217.88,119.48,214.27z"/>
</g>
</svg>
