<?xml version="1.0" encoding="UTF-8"?>
<svg viewBox="0 0 86 55" xmlns="http://www.w3.org/2000/svg" xmlns:xlink="http://www.w3.org/1999/xlink" version="1.1">
 <g id="Placeholder_hotel_logo-copy">
  <path id="Path_7" d="M37.104 2.58 L37.104 2.755 37.104 54.155 48.665 54.155 48.665 2.58 Z M41.363 3.398 L44.4 3.398 C45.182 3.396 45.933 3.706 46.486 4.259 47.039 4.812 47.349 5.563 47.347 6.345 L47.347 6.505 38.417 6.505 38.417 6.345 C38.415 5.563 38.725 4.812 39.278 4.259 39.831 3.706 40.582 3.396 41.364 3.398 Z M38.401 3.398 C38.603 3.398 38.786 3.52 38.863 3.707 38.94 3.893 38.898 4.109 38.755 4.252 38.612 4.395 38.396 4.437 38.21 4.36 38.023 4.283 37.901 4.1 37.901 3.898 37.903 3.623 38.126 3.402 38.401 3.402 Z M47.331 3.398 C47.533 3.398 47.716 3.52 47.793 3.707 47.87 3.893 47.828 4.109 47.685 4.252 47.542 4.395 47.326 4.437 47.14 4.36 46.953 4.283 46.831 4.1 46.831 3.898 46.833 3.623 47.056 3.402 47.331 3.402 Z M32.731 7.513 C31.319 7.508 29.964 8.067 28.965 9.065 27.967 10.064 27.408 11.419 27.413 12.831 L27.413 51.425 35.596 51.425 35.596 7.515 Z M50.116 7.513 L50.116 51.426 58.299 51.426 58.299 12.835 C58.304 11.423 57.745 10.068 56.747 9.069 55.748 8.071 54.393 7.512 52.981 7.517 Z M38.416 7.758 L39.174 7.758 39.174 47.266 38.416 47.266 Z M40.216 7.758 L42.416 7.758 42.416 47.266 40.216 47.266 Z M43.75 7.758 L45.556 7.758 45.556 47.266 43.75 47.266 Z M46.59 7.758 L47.352 7.758 47.352 47.266 46.59 47.266 Z M33.516 10.258 L34.494 10.258 34.494 13.518 33.247 13.518 33.247 10.285 C33.334 10.269 33.422 10.26 33.511 10.258 Z M51.236 10.258 L52.214 10.258 C52.303 10.26 52.391 10.27 52.478 10.285 L52.478 13.518 51.237 13.518 51.237 10.258 Z M30.658 10.258 L31.622 10.258 31.622 13.514 28.843 13.514 28.843 12.069 C28.84 11.588 29.03 11.126 29.369 10.786 29.709 10.446 30.171 10.256 30.652 10.258 Z M54.097 10.258 L55.071 10.258 C55.552 10.256 56.013 10.445 56.353 10.785 56.693 11.125 56.882 11.586 56.88 12.067 L56.88 13.512 54.092 13.512 54.092 10.257 Z M30.658 14.81 L31.622 14.81 31.622 18.065 28.843 18.065 28.843 16.62 C28.841 16.139 29.03 15.678 29.37 15.338 29.71 14.998 30.171 14.809 30.652 14.811 Z M33.516 14.81 L34.494 14.81 34.494 18.07 33.247 18.07 33.247 14.833 C33.334 14.819 33.423 14.811 33.511 14.81 Z M51.236 14.81 L52.214 14.81 C52.302 14.811 52.391 14.819 52.478 14.833 L52.478 18.07 51.237 18.07 51.237 14.81 Z M54.098 14.81 L55.072 14.81 C55.553 14.808 56.014 14.997 56.354 15.337 56.694 15.677 56.883 16.138 56.881 16.619 L56.881 18.064 54.092 18.064 54.092 14.809 Z M24.375 18.942 C23.347 18.94 22.361 19.347 21.635 20.074 20.908 20.8 20.501 21.786 20.503 22.814 L20.503 50 26.46 50 26.46 18.947 Z M59.275 18.942 L59.275 50 65.222 50 65.222 22.819 C65.224 21.791 64.817 20.805 64.09 20.079 63.364 19.352 62.377 18.945 61.35 18.947 Z M30.662 19.363 L31.622 19.363 31.622 22.618 28.843 22.618 28.843 21.18 C28.841 20.7 29.03 20.238 29.37 19.898 29.71 19.558 30.171 19.369 30.652 19.371 Z M33.52 19.363 L34.498 19.363 34.498 22.618 33.247 22.618 33.247 19.389 C33.334 19.374 33.422 19.366 33.511 19.364 Z M51.24 19.363 L52.218 19.363 C52.307 19.365 52.395 19.375 52.482 19.39 L52.482 22.619 51.241 22.619 51.241 19.363 Z M54.101 19.363 L55.075 19.363 C55.556 19.361 56.017 19.55 56.357 19.89 56.697 20.23 56.886 20.691 56.884 21.172 L56.884 22.617 54.101 22.617 54.101 19.362 Z M24.326 19.656 L25.91 19.656 25.91 22.756 21.38 22.756 21.38 22.6 C21.381 20.979 22.694 19.664 24.315 19.661 Z M59.826 19.656 L61.413 19.656 C62.195 19.654 62.946 19.964 63.499 20.517 64.052 21.07 64.362 21.821 64.36 22.603 L64.36 22.759 59.826 22.759 Z M30.653 23.92 L31.622 23.92 31.622 27.18 28.843 27.18 28.843 25.731 C28.841 25.25 29.03 24.789 29.37 24.449 29.71 24.109 30.171 23.92 30.652 23.922 Z M33.511 23.92 L34.489 23.92 34.489 27.18 33.247 27.18 33.247 23.943 C33.334 23.93 33.423 23.923 33.511 23.921 Z M51.231 23.92 L52.209 23.92 C52.297 23.921 52.386 23.929 52.473 23.943 L52.473 27.18 51.232 27.18 51.232 23.92 Z M54.093 23.92 L55.067 23.92 C55.548 23.918 56.009 24.107 56.349 24.447 56.689 24.787 56.878 25.248 56.876 25.729 L56.876 27.18 54.092 27.18 54.092 23.92 Z M22.593 24.548 L23.255 24.548 23.255 26.748 21.37 26.748 21.37 25.767 C21.369 25.443 21.498 25.132 21.727 24.902 21.957 24.673 22.268 24.544 22.592 24.545 Z M62.466 24.548 L63.128 24.548 C63.452 24.547 63.764 24.676 63.993 24.905 64.222 25.134 64.351 25.446 64.35 25.77 L64.35 26.751 62.466 26.751 62.466 24.551 Z M24.771 24.961 C25.047 24.961 25.271 25.185 25.271 25.461 25.271 25.737 25.047 25.961 24.771 25.961 24.495 25.961 24.271 25.737 24.271 25.461 24.271 25.185 24.495 24.961 24.771 24.961 Z M60.79 24.961 C60.992 24.961 61.175 25.083 61.252 25.27 61.329 25.456 61.287 25.672 61.144 25.815 61.001 25.958 60.785 26 60.599 25.923 60.412 25.846 60.29 25.663 60.29 25.461 60.29 25.185 60.513 24.962 60.789 24.961 Z M22.59 27.625 L23.252 27.625 23.252 29.825 21.37 29.825 21.37 28.844 C21.369 28.52 21.498 28.209 21.727 27.979 21.957 27.75 22.268 27.621 22.592 27.622 Z M62.463 27.625 L63.125 27.625 C63.449 27.624 63.761 27.753 63.99 27.982 64.219 28.211 64.348 28.523 64.347 28.847 L64.347 29.828 62.463 29.828 62.463 27.628 Z M24.768 28.052 C25.044 28.052 25.268 28.276 25.268 28.552 25.268 28.828 25.044 29.052 24.768 29.052 24.492 29.052 24.268 28.828 24.268 28.552 24.268 28.276 24.492 28.052 24.768 28.052 Z M60.787 28.052 C60.989 28.052 61.172 28.174 61.249 28.361 61.326 28.547 61.284 28.763 61.141 28.906 60.998 29.049 60.783 29.091 60.596 29.014 60.409 28.937 60.287 28.754 60.287 28.552 60.287 28.419 60.34 28.292 60.434 28.198 60.528 28.104 60.656 28.051 60.789 28.052 Z M30.652 28.472 L31.626 28.472 31.626 31.731 28.844 31.731 28.844 30.28 C28.843 29.8 29.033 29.339 29.373 29 29.712 28.66 30.173 28.47 30.653 28.471 Z M33.51 28.472 L34.488 28.472 34.488 31.731 33.248 31.731 33.248 28.494 C33.335 28.481 33.424 28.474 33.512 28.472 Z M51.23 28.472 L52.208 28.472 C52.296 28.473 52.385 28.481 52.472 28.495 L52.472 31.732 51.231 31.732 51.231 28.472 Z M54.092 28.472 L55.066 28.472 C55.547 28.47 56.008 28.659 56.348 28.999 56.688 29.339 56.877 29.8 56.875 30.281 L56.875 31.73 54.092 31.73 54.092 28.471 Z M22.592 30.702 L23.254 30.702 23.254 32.902 21.371 32.902 21.371 31.921 C21.37 31.597 21.499 31.285 21.728 31.056 21.957 30.827 22.269 30.698 22.593 30.699 Z M62.465 30.702 L63.127 30.702 C63.451 30.701 63.763 30.83 63.992 31.059 64.221 31.288 64.35 31.6 64.349 31.924 L64.349 32.905 62.465 32.905 62.465 30.705 Z M24.77 31.145 C25.046 31.145 25.27 31.369 25.27 31.645 25.27 31.921 25.046 32.145 24.77 32.145 24.494 32.145 24.27 31.921 24.27 31.645 24.27 31.369 24.494 31.145 24.77 31.145 Z M60.789 31.145 C60.991 31.145 61.174 31.267 61.251 31.454 61.328 31.641 61.286 31.856 61.143 31.999 61 32.142 60.784 32.184 60.598 32.107 60.411 32.03 60.289 31.847 60.289 31.645 60.289 31.512 60.342 31.384 60.436 31.29 60.53 31.196 60.658 31.143 60.791 31.144 Z M30.654 33.025 L31.628 33.025 31.628 36.28 28.846 36.28 28.846 34.831 C28.844 34.351 29.033 33.889 29.373 33.549 29.713 33.209 30.174 33.02 30.655 33.022 Z M33.512 33.025 L34.49 33.025 34.49 36.28 33.249 36.28 33.249 33.05 C33.336 33.035 33.425 33.027 33.513 33.025 Z M51.232 33.025 L52.21 33.025 C52.299 33.028 52.387 33.037 52.474 33.052 L52.474 36.28 51.233 36.28 51.233 33.02 Z M54.094 33.025 L55.068 33.025 C55.549 33.023 56.01 33.212 56.35 33.552 56.69 33.892 56.879 34.354 56.877 34.834 L56.877 36.28 54.094 36.28 54.094 33.021 Z M22.594 33.779 L23.256 33.779 23.256 35.979 21.372 35.979 21.372 34.998 C21.372 34.674 21.501 34.364 21.731 34.135 21.96 33.907 22.271 33.779 22.595 33.78 Z M62.467 33.779 L63.129 33.779 C63.453 33.778 63.765 33.907 63.994 34.136 64.223 34.365 64.352 34.677 64.351 35.001 L64.351 35.982 62.467 35.982 62.467 33.78 Z M24.772 34.235 C25.048 34.235 25.272 34.459 25.272 34.735 25.272 35.011 25.048 35.235 24.772 35.235 24.496 35.235 24.272 35.011 24.272 34.735 24.272 34.459 24.496 34.235 24.772 34.235 Z M60.791 34.235 C60.993 34.235 61.176 34.357 61.253 34.544 61.33 34.731 61.288 34.946 61.145 35.089 61.002 35.232 60.786 35.274 60.6 35.197 60.413 35.12 60.291 34.937 60.291 34.735 60.292 34.459 60.516 34.235 60.792 34.236 Z M10.9 34.96 C10.309 34.958 9.742 35.193 9.324 35.611 8.906 36.029 8.671 36.596 8.673 37.187 L8.673 38.387 18.968 38.387 18.968 34.961 Z M66.757 34.96 L66.757 38.386 77.052 38.386 77.052 37.186 C77.053 36.595 76.819 36.027 76.4 35.609 75.981 35.191 75.413 34.958 74.822 34.96 Z M22.595 36.86 L23.257 36.86 23.257 39.06 21.374 39.06 21.374 38.08 C21.373 37.755 21.501 37.443 21.73 37.213 21.96 36.983 22.271 36.854 22.596 36.854 Z M62.468 36.86 L63.13 36.86 C63.455 36.86 63.766 36.989 63.996 37.219 64.225 37.449 64.353 37.761 64.352 38.086 L64.352 39.064 62.468 39.064 62.468 36.864 Z M24.773 37.332 C25.049 37.332 25.273 37.556 25.273 37.832 25.273 38.108 25.049 38.332 24.773 38.332 24.497 38.332 24.273 38.108 24.273 37.832 24.273 37.556 24.497 37.332 24.773 37.332 Z M60.792 37.332 C60.994 37.332 61.177 37.454 61.254 37.641 61.331 37.828 61.289 38.043 61.146 38.186 61.003 38.329 60.788 38.371 60.601 38.294 60.414 38.217 60.292 38.034 60.292 37.832 60.291 37.699 60.343 37.57 60.437 37.476 60.531 37.381 60.66 37.328 60.793 37.328 Z M30.657 37.581 L31.631 37.581 31.631 40.84 28.847 40.84 28.847 39.391 C28.846 38.911 29.037 38.45 29.377 38.111 29.717 37.771 30.178 37.581 30.658 37.582 Z M54.096 37.581 L55.07 37.581 C55.551 37.579 56.012 37.768 56.352 38.108 56.692 38.448 56.881 38.909 56.879 39.39 L56.879 40.839 54.096 40.839 54.096 37.58 Z M33.515 37.581 L34.493 37.581 34.493 40.836 33.252 40.836 33.252 37.603 C33.339 37.59 33.428 37.582 33.516 37.581 Z M51.235 37.581 L52.213 37.581 C52.301 37.582 52.39 37.59 52.477 37.604 L52.477 40.837 51.236 40.837 51.236 37.58 Z M7.01 39.224 C6.419 39.222 5.852 39.456 5.434 39.875 5.016 40.292 4.781 40.86 4.783 41.451 L4.783 42.651 18.97 42.651 18.97 39.228 Z M66.757 39.224 L66.757 42.646 80.943 42.646 80.943 41.446 C80.945 40.855 80.71 40.287 80.292 39.87 79.874 39.451 79.307 39.217 78.716 39.219 Z M22.595 39.934 L23.257 39.934 23.257 42.134 21.374 42.134 21.374 41.156 C21.373 40.831 21.501 40.519 21.73 40.289 21.96 40.059 22.271 39.93 22.596 39.93 Z M62.468 39.934 L63.13 39.934 C63.455 39.934 63.766 40.063 63.996 40.293 64.225 40.523 64.353 40.835 64.352 41.16 L64.352 42.138 62.468 42.138 62.468 39.938 Z M24.773 40.421 C25.049 40.421 25.273 40.645 25.273 40.921 25.273 41.197 25.049 41.421 24.773 41.421 24.497 41.421 24.273 41.197 24.273 40.921 24.273 40.645 24.497 40.421 24.773 40.421 Z M60.792 40.421 C60.994 40.421 61.177 40.543 61.254 40.73 61.331 40.917 61.289 41.132 61.146 41.275 61.003 41.418 60.788 41.46 60.601 41.383 60.414 41.306 60.292 41.123 60.292 40.921 60.292 40.788 60.345 40.661 60.439 40.567 60.533 40.473 60.66 40.421 60.793 40.421 Z M30.658 42.13 L31.632 42.13 31.632 45.39 28.847 45.39 28.847 43.945 C28.846 43.464 29.036 43.002 29.376 42.662 29.716 42.321 30.177 42.13 30.658 42.131 Z M33.516 42.13 L34.494 42.13 34.494 45.39 33.252 45.39 33.252 42.157 C33.339 42.141 33.427 42.132 33.516 42.13 Z M51.236 42.13 L52.214 42.13 C52.303 42.133 52.391 42.142 52.478 42.157 L52.478 45.39 51.237 45.39 51.237 42.13 Z M54.098 42.13 L55.072 42.13 C55.553 42.13 56.013 42.321 56.353 42.661 56.692 43.001 56.882 43.462 56.881 43.943 L56.881 45.388 54.098 45.388 Z M22.598 43.014 L23.26 43.014 23.26 45.214 21.375 45.214 21.375 44.236 C21.374 43.912 21.502 43.6 21.732 43.371 21.961 43.141 22.273 43.013 22.597 43.014 Z M62.471 43.014 L63.133 43.014 C63.457 43.013 63.769 43.142 63.998 43.371 64.227 43.6 64.356 43.912 64.355 44.236 L64.355 45.214 62.471 45.214 Z M3.622 43.48 C3.031 43.478 2.464 43.713 2.046 44.13 1.628 44.549 1.393 45.116 1.395 45.707 L1.395 46.907 18.971 46.907 18.971 43.48 Z M66.762 43.48 L66.762 46.902 84.341 46.902 84.341 45.702 C84.343 45.111 84.108 44.544 83.69 44.125 83.272 43.708 82.705 43.473 82.114 43.475 Z M24.779 43.509 C25.055 43.509 25.279 43.733 25.279 44.009 25.279 44.285 25.055 44.509 24.779 44.509 24.503 44.509 24.279 44.285 24.279 44.009 24.279 43.733 24.503 43.509 24.779 43.509 Z M60.798 43.509 C61 43.509 61.183 43.631 61.26 43.818 61.337 44.005 61.295 44.22 61.152 44.363 61.009 44.506 60.794 44.548 60.607 44.471 60.42 44.394 60.298 44.211 60.298 44.009 60.3 43.736 60.521 43.514 60.794 43.512 Z M60.098 48.176 L60.325 48.176 60.325 48.942 59.671 48.942 59.671 48.6 C59.674 48.369 59.861 48.182 60.092 48.18 Z M60.551 48.176 L60.782 48.176 C60.895 48.175 61.003 48.219 61.082 48.299 61.162 48.378 61.207 48.487 61.206 48.599 L61.206 48.941 60.552 48.941 Z M21.376 48.347 L21.607 48.347 21.607 49.113 20.953 49.113 20.953 48.78 C20.952 48.667 20.996 48.559 21.076 48.479 21.155 48.398 21.263 48.353 21.376 48.353 Z M21.834 48.347 L22.061 48.347 C22.174 48.347 22.283 48.392 22.363 48.472 22.443 48.552 22.488 48.661 22.488 48.774 L22.488 49.113 21.834 49.113 Z M62.015 48.485 C62.084 48.485 62.15 48.512 62.199 48.561 62.248 48.61 62.275 48.676 62.275 48.745 62.276 48.815 62.248 48.881 62.2 48.931 62.151 48.98 62.085 49.008 62.015 49.009 61.869 49.008 61.752 48.891 61.751 48.745 61.754 48.604 61.868 48.491 62.009 48.489 Z M63.215 48.485 C63.284 48.484 63.351 48.512 63.401 48.56 63.45 48.609 63.478 48.675 63.479 48.745 63.485 48.843 63.436 48.936 63.352 48.987 63.268 49.038 63.163 49.038 63.079 48.987 62.995 48.936 62.946 48.843 62.952 48.745 62.954 48.605 63.066 48.492 63.206 48.489 Z M64.415 48.485 C64.484 48.484 64.551 48.512 64.601 48.56 64.65 48.609 64.678 48.675 64.679 48.745 64.678 48.891 64.561 49.008 64.415 49.009 64.346 49.008 64.279 48.98 64.23 48.931 64.182 48.881 64.154 48.815 64.155 48.745 64.156 48.608 64.265 48.495 64.402 48.489 Z M23.302 48.656 C23.372 48.655 23.438 48.683 23.488 48.731 23.537 48.78 23.565 48.846 23.566 48.916 23.565 49.062 23.448 49.179 23.302 49.18 23.233 49.18 23.166 49.151 23.117 49.102 23.069 49.052 23.041 48.985 23.042 48.916 23.043 48.779 23.151 48.667 23.288 48.66 Z M24.502 48.656 C24.571 48.656 24.637 48.683 24.686 48.732 24.735 48.781 24.762 48.847 24.762 48.916 24.763 48.985 24.735 49.052 24.687 49.102 24.638 49.151 24.572 49.18 24.502 49.18 24.356 49.179 24.239 49.062 24.238 48.916 24.241 48.778 24.351 48.666 24.489 48.66 Z M25.702 48.656 C25.771 48.655 25.838 48.683 25.888 48.731 25.937 48.78 25.965 48.846 25.966 48.916 25.972 49.014 25.923 49.107 25.839 49.158 25.755 49.209 25.65 49.209 25.566 49.158 25.482 49.107 25.433 49.014 25.439 48.916 25.442 48.779 25.549 48.668 25.686 48.66 Z M59.681 49.041 L60.335 49.041 60.335 49.428 59.681 49.428 Z M60.561 49.041 L61.215 49.041 61.215 49.428 60.561 49.428 Z M51.192 49.175 C51.212 49.174 51.232 49.174 51.252 49.175 L51.572 49.175 51.572 50.238 50.662 50.238 50.662 49.766 C50.662 49.462 50.891 49.207 51.193 49.175 Z M51.884 49.175 L52.204 49.175 C52.361 49.175 52.511 49.237 52.622 49.348 52.733 49.459 52.795 49.609 52.795 49.766 L52.795 50.238 51.885 50.238 51.885 49.18 Z M20.964 49.212 L21.618 49.212 21.618 49.603 20.964 49.603 Z M21.844 49.212 L22.498 49.212 22.498 49.603 21.844 49.603 Z M28.668 49.298 L28.988 49.298 28.988 50.361 28.078 50.361 28.078 49.889 C28.077 49.732 28.139 49.581 28.25 49.47 28.361 49.359 28.512 49.297 28.669 49.298 Z M29.299 49.298 L29.619 49.298 C29.776 49.298 29.926 49.36 30.037 49.471 30.148 49.582 30.21 49.732 30.21 49.889 L30.21 50.361 29.3 50.361 29.3 49.298 Z M53.716 49.465 C53.911 49.466 54.068 49.625 54.068 49.82 54.068 50.015 53.91 50.173 53.715 50.173 53.52 50.173 53.361 50.016 53.36 49.821 53.363 49.633 53.512 49.479 53.7 49.47 Z M55.34 49.465 C55.535 49.466 55.692 49.625 55.692 49.82 55.692 50.015 55.534 50.173 55.339 50.173 55.144 50.173 54.985 50.016 54.984 49.821 54.985 49.633 55.134 49.479 55.322 49.47 Z M56.96 49.465 C57.156 49.465 57.315 49.624 57.315 49.82 57.315 50.015 57.156 50.174 56.96 50.174 56.764 50.174 56.606 50.015 56.606 49.82 56.606 49.624 56.764 49.465 56.96 49.465 Z M31.132 49.587 C31.329 49.587 31.489 49.747 31.489 49.944 31.489 50.14 31.329 50.3 31.132 50.3 30.935 50.3 30.776 50.14 30.776 49.944 30.776 49.747 30.935 49.587 31.132 49.587 Z M32.755 49.587 C32.952 49.587 33.112 49.747 33.112 49.944 33.112 50.14 32.952 50.3 32.755 50.3 32.558 50.3 32.399 50.14 32.399 49.944 32.399 49.747 32.558 49.587 32.755 49.587 Z M34.375 49.587 C34.519 49.585 34.65 49.671 34.707 49.804 34.763 49.937 34.734 50.091 34.632 50.193 34.531 50.296 34.377 50.327 34.244 50.272 34.11 50.217 34.023 50.087 34.023 49.943 34.026 49.756 34.173 49.602 34.36 49.592 Z M50.661 50.379 L51.571 50.379 51.571 50.914 50.661 50.914 Z M51.885 50.379 L52.795 50.379 52.795 50.914 51.885 50.914 Z M28.078 50.501 L28.988 50.501 28.988 51.04 28.078 51.04 Z M29.3 50.501 L30.21 50.501 30.21 51.04 29.3 51.04 Z M38.791 51.434 L39.218 51.434 39.218 52.862 37.996 52.862 37.996 52.227 C37.996 52.015 38.08 51.813 38.231 51.664 38.381 51.515 38.585 51.433 38.796 51.435 Z M39.639 51.434 L40.066 51.434 C40.277 51.432 40.481 51.514 40.631 51.662 40.781 51.811 40.866 52.014 40.866 52.225 L40.866 52.86 39.622 52.86 39.622 51.434 Z M42.366 51.906 C42.642 51.906 42.866 52.13 42.866 52.406 42.866 52.682 42.642 52.906 42.366 52.906 42.09 52.906 41.866 52.682 41.866 52.406 41.866 52.13 42.09 51.906 42.366 51.906 Z M44.645 51.906 C44.921 51.906 45.145 52.13 45.145 52.406 45.145 52.682 44.921 52.906 44.645 52.906 44.369 52.906 44.145 52.682 44.145 52.406 44.145 52.13 44.369 51.906 44.645 51.906 Z M46.926 51.906 C47.128 51.906 47.311 52.028 47.388 52.215 47.465 52.401 47.423 52.617 47.28 52.76 47.137 52.903 46.922 52.945 46.735 52.868 46.548 52.791 46.426 52.608 46.426 52.406 46.429 52.138 46.642 51.92 46.91 51.911 Z M37.996 53.051 L39.218 53.051 39.218 53.78 37.996 53.78 Z M39.639 53.051 L40.861 53.051 40.861 53.78 39.622 53.78 Z" fill="none" stroke="none"/>
  <path id="Path_8" d="M18.961 34.752 L18.961 38.177 8.667 38.177 8.667 36.977 C8.665 36.386 8.9 35.819 9.317 35.401 9.735 34.983 10.303 34.748 10.894 34.75 Z" fill="#29abe2" fill-opacity="1" stroke="none"/>
  <path id="Path_9" d="M18.962 39.011 L18.962 42.436 4.777 42.436 4.777 41.236 C4.775 40.645 5.01 40.078 5.427 39.659 5.845 39.242 6.413 39.007 7.004 39.009 Z" fill="#29abe2" fill-opacity="1" stroke="none"/>
  <path id="Path_10" d="M18.961 43.271 L18.961 46.696 1.381 46.696 1.381 45.496 C1.379 44.905 1.614 44.337 2.032 43.919 2.449 43.502 3.017 43.267 3.608 43.269 Z" fill="#29abe2" fill-opacity="1" stroke="none"/>
  <path id="Path_11" d="M20.493 49.789 L26.45 49.789 26.45 18.737 24.364 18.737 C23.337 18.735 22.351 19.142 21.624 19.868 20.898 20.595 20.491 21.581 20.493 22.608 Z" fill="#29abe2" fill-opacity="1" stroke="none"/>
  <path id="Path_12" d="M27.412 51.216 L35.597 51.216 35.597 7.306 32.732 7.306 C31.32 7.303 29.965 7.862 28.967 8.86 27.969 9.858 27.41 11.213 27.413 12.625 L27.413 51.216 Z" fill="#29abe2" fill-opacity="1" stroke="none"/>
  <path id="Path_13" d="M30.649 10.05 C30.169 10.049 29.708 10.24 29.369 10.579 29.03 10.918 28.839 11.379 28.84 11.859 L28.84 13.307 31.624 13.307 31.624 10.05 Z" fill="#29abe2" fill-opacity="1" stroke="none"/>
  <path id="Path_14" d="M30.649 14.603 C30.169 14.602 29.708 14.792 29.369 15.132 29.029 15.471 28.839 15.932 28.84 16.412 L28.84 17.86 31.624 17.86 31.624 14.603 Z" fill="#29abe2" fill-opacity="1" stroke="none"/>
  <path id="Path_15" d="M30.649 19.156 C30.169 19.155 29.708 19.345 29.369 19.685 29.029 20.024 28.839 20.485 28.84 20.965 L28.84 22.413 31.624 22.413 31.624 19.156 Z" fill="#29abe2" fill-opacity="1" stroke="none"/>
  <path id="Path_16" d="M30.649 23.71 C30.169 23.709 29.708 23.9 29.369 24.239 29.03 24.578 28.839 25.039 28.84 25.519 L28.84 26.97 31.624 26.97 31.624 23.71 Z" fill="#29abe2" fill-opacity="1" stroke="none"/>
  <path id="Path_17" d="M30.649 28.263 C30.169 28.262 29.708 28.453 29.369 28.792 29.03 29.131 28.839 29.592 28.84 30.072 L28.84 31.52 31.624 31.52 31.624 28.263 Z" fill="#29abe2" fill-opacity="1" stroke="none"/>
  <path id="Path_18" d="M30.649 32.816 C30.169 32.815 29.708 33.006 29.369 33.345 29.03 33.684 28.839 34.145 28.84 34.625 L28.84 36.073 31.624 36.073 31.624 32.816 Z" fill="#29abe2" fill-opacity="1" stroke="none"/>
  <path id="Path_19" d="M30.649 37.368 C30.169 37.367 29.708 37.558 29.369 37.897 29.03 38.236 28.839 38.697 28.84 39.177 L28.84 40.625 31.624 40.625 31.624 37.368 Z" fill="#29abe2" fill-opacity="1" stroke="none"/>
  <path id="Path_20" d="M30.649 41.921 C30.169 41.92 29.708 42.111 29.368 42.451 29.029 42.791 28.839 43.252 28.84 43.732 L28.84 45.18 31.624 45.18 31.624 41.923 30.649 41.923 Z" fill="#29abe2" fill-opacity="1" stroke="none"/>
  <path id="Path_21" d="M24.31 19.452 C23.528 19.45 22.778 19.76 22.226 20.313 21.673 20.865 21.363 21.615 21.365 22.397 L21.365 22.554 25.897 22.554 25.897 19.454 Z" fill="#29abe2" fill-opacity="1" stroke="none"/>
  <path id="Path_22" d="M22.589 24.337 C22.264 24.336 21.952 24.465 21.722 24.694 21.493 24.924 21.364 25.236 21.365 25.561 L21.365 26.54 23.247 26.54 23.247 24.34 Z" fill="#29abe2" fill-opacity="1" stroke="none"/>
  <path id="Path_23" d="M22.589 27.415 C22.264 27.414 21.952 27.543 21.722 27.772 21.493 28.002 21.364 28.314 21.365 28.639 L21.365 29.618 23.247 29.618 23.247 27.418 Z" fill="#29abe2" fill-opacity="1" stroke="none"/>
  <path id="Path_24" d="M22.589 30.493 C22.264 30.492 21.952 30.621 21.722 30.85 21.493 31.08 21.364 31.392 21.365 31.717 L21.365 32.696 23.247 32.696 23.247 30.496 Z" fill="#29abe2" fill-opacity="1" stroke="none"/>
  <path id="Path_25" d="M22.589 33.571 C22.264 33.57 21.952 33.699 21.722 33.928 21.493 34.158 21.364 34.47 21.365 34.795 L21.365 35.774 23.247 35.774 23.247 33.574 Z" fill="#29abe2" fill-opacity="1" stroke="none"/>
  <path id="Path_26" d="M22.589 36.648 C22.264 36.647 21.952 36.776 21.722 37.005 21.493 37.235 21.364 37.547 21.365 37.872 L21.365 38.851 23.247 38.851 23.247 36.651 Z" fill="#29abe2" fill-opacity="1" stroke="none"/>
  <path id="Path_27" d="M22.589 39.725 C22.264 39.724 21.952 39.853 21.722 40.082 21.493 40.312 21.364 40.624 21.365 40.949 L21.365 41.928 23.247 41.928 23.247 39.728 Z" fill="#29abe2" fill-opacity="1" stroke="none"/>
  <path id="Path_28" d="M22.589 42.803 C22.264 42.802 21.952 42.931 21.722 43.16 21.493 43.39 21.364 43.702 21.365 44.027 L21.365 45.006 23.247 45.006 23.247 42.806 Z" fill="#29abe2" fill-opacity="1" stroke="none"/>
  <path id="Path_29" d="M33.507 10.049 C33.418 10.051 33.33 10.059 33.242 10.073 L33.242 13.308 34.482 13.308 34.482 10.049 Z M33.507 14.603 C33.418 14.605 33.33 14.613 33.242 14.627 L33.242 17.863 34.482 17.863 34.482 14.603 Z M33.507 19.156 C33.418 19.158 33.33 19.166 33.242 19.18 L33.242 22.412 34.482 22.412 34.482 19.156 Z M33.507 23.707 C33.418 23.709 33.33 23.717 33.242 23.731 L33.242 26.967 34.482 26.967 34.482 23.707 Z M33.507 28.262 C33.418 28.264 33.33 28.272 33.242 28.286 L33.242 31.521 34.482 31.521 34.482 28.262 Z M33.507 32.816 C33.418 32.818 33.33 32.826 33.242 32.84 L33.242 36.075 34.482 36.075 34.482 32.816 Z M33.507 37.369 C33.418 37.371 33.33 37.379 33.242 37.393 L33.242 40.625 34.482 40.625 34.482 37.369 Z M33.507 41.92 C33.418 41.922 33.33 41.93 33.242 41.944 L33.242 45.179 34.482 45.179 34.482 41.92 Z" fill="#29abe2" fill-opacity="1" stroke="none"/>
  <path id="Path_30" d="M37.099 2.37 L37.099 2.546 37.099 53.946 48.663 53.946 48.663 2.376 Z" fill="#29abe2" fill-opacity="1" stroke="none"/>
  <g id="Group_2">
   <path id="Path_31" d="M41.358 3.19 C40.576 3.188 39.826 3.498 39.273 4.051 38.72 4.604 38.41 5.354 38.412 6.136 L38.412 6.294 47.341 6.294 47.341 6.136 C47.343 5.354 47.033 4.604 46.48 4.051 45.927 3.498 45.177 3.188 44.395 3.19 Z" fill="#29abe2" fill-opacity="1" stroke="none"/>
  </g>
  <path id="Path_32" d="M47.829 3.691 C47.829 3.967 47.605 4.191 47.329 4.191 47.053 4.191 46.829 3.967 46.829 3.691 46.829 3.415 47.053 3.191 47.329 3.191 47.605 3.191 47.829 3.415 47.829 3.691 Z" fill="#29abe2" fill-opacity="1" stroke="none"/>
  <path id="Path_33" d="M38.895 3.691 C38.895 3.967 38.671 4.191 38.395 4.191 38.119 4.191 37.895 3.967 37.895 3.691 37.895 3.415 38.119 3.191 38.395 3.191 38.671 3.191 38.895 3.415 38.895 3.691 Z" fill="#29abe2" fill-opacity="1" stroke="none"/>
  <path id="Path_34" d="M38.412 7.551 L38.412 47.06 47.341 47.06 47.341 7.551 Z" fill="#29abe2" fill-opacity="1" stroke="none"/>
  <g id="Group_3">
   <path id="Path_35" d="M39.171 6.451 L39.171 50.275 40.206 50.275 40.206 6.451 Z" fill="#29abe2" fill-opacity="1" stroke="none"/>
   <path id="Path_36" d="M45.545 6.451 L45.545 50.275 46.58 50.275 46.58 6.451 Z" fill="#29abe2" fill-opacity="1" stroke="none"/>
  </g>
  <path id="Path_37" d="M42.406 6.45 L42.406 50.274 43.741 50.274 43.741 6.45 Z" fill="#29abe2" fill-opacity="1" stroke="none"/>
  <path id="Path_38" d="M66.749 34.752 L66.749 38.177 77.043 38.177 77.043 36.977 C77.045 36.386 76.811 35.818 76.393 35.401 75.975 34.982 75.407 34.748 74.816 34.75 Z" fill="#29abe2" fill-opacity="1" stroke="none"/>
  <path id="Path_39" d="M66.749 39.011 L66.749 42.436 80.929 42.436 80.929 41.236 C80.931 40.645 80.697 40.077 80.279 39.659 79.861 39.241 79.293 39.007 78.702 39.009 Z" fill="#29abe2" fill-opacity="1" stroke="none"/>
  <path id="Path_40" d="M66.749 43.271 L66.749 46.696 84.329 46.696 84.329 45.496 C84.331 44.905 84.097 44.337 83.679 43.919 83.261 43.502 82.693 43.267 82.102 43.269 Z" fill="#29abe2" fill-opacity="1" stroke="none"/>
  <path id="Path_41" d="M65.216 49.789 L59.259 49.789 59.259 18.737 61.345 18.737 C62.372 18.735 63.358 19.142 64.085 19.868 64.811 20.595 65.218 21.581 65.216 22.608 Z" fill="#29abe2" fill-opacity="1" stroke="none"/>
  <path id="Path_42" d="M58.297 51.216 L50.112 51.216 50.112 7.306 52.978 7.306 C54.39 7.303 55.745 7.862 56.743 8.86 57.741 9.858 58.3 11.213 58.297 12.625 Z" fill="#29abe2" fill-opacity="1" stroke="none"/>
  <path id="Path_43" d="M55.06 10.05 C55.54 10.049 56.001 10.24 56.34 10.579 56.679 10.918 56.87 11.379 56.869 11.859 L56.869 13.307 54.085 13.307 54.085 10.05 Z" fill="#29abe2" fill-opacity="1" stroke="none"/>
  <path id="Path_44" d="M55.06 14.603 C55.54 14.602 56.001 14.792 56.34 15.132 56.68 15.471 56.87 15.932 56.869 16.412 L56.869 17.86 54.085 17.86 54.085 14.603 Z" fill="#29abe2" fill-opacity="1" stroke="none"/>
  <path id="Path_45" d="M55.06 19.156 C55.54 19.155 56.001 19.345 56.34 19.685 56.68 20.024 56.87 20.485 56.869 20.965 L56.869 22.413 54.085 22.413 54.085 19.156 Z" fill="#29abe2" fill-opacity="1" stroke="none"/>
  <path id="Path_46" d="M55.06 23.71 C55.54 23.709 56.001 23.9 56.34 24.239 56.679 24.578 56.87 25.039 56.869 25.519 L56.869 26.97 54.085 26.97 54.085 23.71 Z" fill="#29abe2" fill-opacity="1" stroke="none"/>
  <path id="Path_47" d="M55.06 28.263 C55.54 28.262 56.001 28.453 56.34 28.792 56.679 29.131 56.87 29.592 56.869 30.072 L56.869 31.52 54.085 31.52 54.085 28.263 Z" fill="#29abe2" fill-opacity="1" stroke="none"/>
  <path id="Path_48" d="M55.06 32.816 C55.54 32.815 56.001 33.006 56.34 33.345 56.679 33.684 56.87 34.145 56.869 34.625 L56.869 36.073 54.085 36.073 54.085 32.816 Z" fill="#29abe2" fill-opacity="1" stroke="none"/>
  <path id="Path_49" d="M55.06 37.368 C55.54 37.367 56.001 37.558 56.34 37.897 56.679 38.236 56.87 38.697 56.869 39.177 L56.869 40.625 54.085 40.625 54.085 37.368 Z" fill="#29abe2" fill-opacity="1" stroke="none"/>
  <path id="Path_50" d="M55.06 41.921 C55.54 41.92 56.001 42.111 56.341 42.451 56.68 42.791 56.87 43.252 56.869 43.732 L56.869 45.18 54.085 45.18 54.085 41.923 55.06 41.923 Z" fill="#29abe2" fill-opacity="1" stroke="none"/>
  <path id="Path_51" d="M61.402 19.452 C62.184 19.45 62.934 19.76 63.486 20.313 64.039 20.865 64.349 21.615 64.347 22.397 L64.347 22.555 59.812 22.555 59.812 19.455 Z" fill="#29abe2" fill-opacity="1" stroke="none"/>
  <path id="Path_52" d="M63.12 24.337 C63.445 24.336 63.757 24.465 63.987 24.694 64.216 24.924 64.345 25.236 64.344 25.561 L64.344 26.54 62.462 26.54 62.462 24.34 Z" fill="#29abe2" fill-opacity="1" stroke="none"/>
  <path id="Path_53" d="M63.12 27.415 C63.445 27.414 63.757 27.543 63.987 27.772 64.216 28.002 64.345 28.314 64.344 28.639 L64.344 29.618 62.462 29.618 62.462 27.418 Z" fill="#29abe2" fill-opacity="1" stroke="none"/>
  <path id="Path_54" d="M63.12 30.493 C63.445 30.492 63.757 30.621 63.987 30.85 64.216 31.08 64.345 31.392 64.344 31.717 L64.344 32.696 62.462 32.696 62.462 30.496 Z" fill="#29abe2" fill-opacity="1" stroke="none"/>
  <path id="Path_55" d="M63.12 33.571 C63.445 33.57 63.757 33.699 63.987 33.928 64.216 34.158 64.345 34.47 64.344 34.795 L64.344 35.774 62.462 35.774 62.462 33.574 Z" fill="#29abe2" fill-opacity="1" stroke="none"/>
  <path id="Path_56" d="M63.12 36.648 C63.445 36.647 63.757 36.776 63.987 37.005 64.216 37.235 64.345 37.547 64.344 37.872 L64.344 38.851 62.462 38.851 62.462 36.651 Z" fill="#29abe2" fill-opacity="1" stroke="none"/>
  <path id="Path_57" d="M63.12 39.725 C63.445 39.724 63.757 39.853 63.987 40.082 64.216 40.312 64.345 40.624 64.344 40.949 L64.344 41.928 62.462 41.928 62.462 39.728 Z" fill="#29abe2" fill-opacity="1" stroke="none"/>
  <path id="Path_58" d="M63.12 42.803 C63.445 42.802 63.757 42.931 63.987 43.16 64.216 43.39 64.345 43.702 64.344 44.027 L64.344 45.006 62.462 45.006 62.462 42.806 Z" fill="#29abe2" fill-opacity="1" stroke="none"/>
  <path id="Path_59" d="M52.202 10.049 C52.291 10.051 52.379 10.059 52.467 10.073 L52.467 13.308 51.227 13.308 51.227 10.049 Z M52.202 14.603 C52.291 14.605 52.379 14.613 52.467 14.627 L52.467 17.863 51.227 17.863 51.227 14.603 Z M52.202 19.156 C52.291 19.158 52.379 19.166 52.467 19.18 L52.467 22.412 51.227 22.412 51.227 19.156 Z M52.202 23.707 C52.291 23.709 52.379 23.717 52.467 23.731 L52.467 26.967 51.227 26.967 51.227 23.707 Z M52.202 28.262 C52.291 28.264 52.379 28.272 52.467 28.286 L52.467 31.521 51.227 31.521 51.227 28.262 Z M52.202 32.816 C52.291 32.818 52.379 32.826 52.467 32.84 L52.467 36.075 51.227 36.075 51.227 32.816 Z M52.202 37.369 C52.291 37.371 52.379 37.379 52.467 37.393 L52.467 40.625 51.227 40.625 51.227 37.369 Z M52.202 41.92 C52.291 41.922 52.379 41.93 52.467 41.944 L52.467 45.179 51.227 45.179 51.227 41.92 Z" fill="#29abe2" fill-opacity="1" stroke="none"/>
  <path id="Path_60" d="M25.263 25.251 C25.263 25.527 25.039 25.751 24.763 25.751 24.487 25.751 24.263 25.527 24.263 25.251 24.263 24.975 24.487 24.751 24.763 24.751 25.039 24.751 25.263 24.975 25.263 25.251 Z" fill="#29abe2" fill-opacity="1" stroke="none"/>
  <path id="Path_61" d="M25.263 28.342 C25.263 28.618 25.039 28.842 24.763 28.842 24.487 28.842 24.263 28.618 24.263 28.342 24.263 28.066 24.487 27.842 24.763 27.842 25.039 27.842 25.263 28.066 25.263 28.342 Z" fill="#29abe2" fill-opacity="1" stroke="none"/>
  <path id="Path_62" d="M25.263 31.435 C25.263 31.711 25.039 31.935 24.763 31.935 24.487 31.935 24.263 31.711 24.263 31.435 24.263 31.159 24.487 30.935 24.763 30.935 25.039 30.935 25.263 31.159 25.263 31.435 Z" fill="#29abe2" fill-opacity="1" stroke="none"/>
  <path id="Path_63" d="M25.263 34.526 C25.263 34.802 25.039 35.026 24.763 35.026 24.487 35.026 24.263 34.802 24.263 34.526 24.263 34.25 24.487 34.026 24.763 34.026 25.039 34.026 25.263 34.25 25.263 34.526 Z" fill="#29abe2" fill-opacity="1" stroke="none"/>
  <path id="Path_64" d="M25.263 37.619 C25.263 37.895 25.039 38.119 24.763 38.119 24.487 38.119 24.263 37.895 24.263 37.619 24.263 37.343 24.487 37.119 24.763 37.119 25.039 37.119 25.263 37.343 25.263 37.619 Z" fill="#29abe2" fill-opacity="1" stroke="none"/>
  <path id="Path_65" d="M25.263 40.71 C25.263 40.986 25.039 41.21 24.763 41.21 24.487 41.21 24.263 40.986 24.263 40.71 24.263 40.434 24.487 40.21 24.763 40.21 25.039 40.21 25.263 40.434 25.263 40.71 Z" fill="#29abe2" fill-opacity="1" stroke="none"/>
  <path id="Path_66" d="M25.263 43.803 C25.263 44.079 25.039 44.303 24.763 44.303 24.487 44.303 24.263 44.079 24.263 43.803 24.263 43.527 24.487 43.303 24.763 43.303 25.039 43.303 25.263 43.527 25.263 43.803 Z" fill="#29abe2" fill-opacity="1" stroke="none"/>
  <path id="Path_67" d="M61.286 25.251 C61.286 25.527 61.062 25.751 60.786 25.751 60.51 25.751 60.286 25.527 60.286 25.251 60.286 24.975 60.51 24.751 60.786 24.751 61.062 24.751 61.286 24.975 61.286 25.251 Z" fill="#29abe2" fill-opacity="1" stroke="none"/>
  <path id="Path_68" d="M61.286 28.342 C61.286 28.618 61.062 28.842 60.786 28.842 60.51 28.842 60.286 28.618 60.286 28.342 60.286 28.066 60.51 27.842 60.786 27.842 61.062 27.842 61.286 28.066 61.286 28.342 Z" fill="#29abe2" fill-opacity="1" stroke="none"/>
  <path id="Path_69" d="M61.286 31.435 C61.286 31.711 61.062 31.935 60.786 31.935 60.51 31.935 60.286 31.711 60.286 31.435 60.286 31.159 60.51 30.935 60.786 30.935 61.062 30.935 61.286 31.159 61.286 31.435 Z" fill="#29abe2" fill-opacity="1" stroke="none"/>
  <path id="Path_70" d="M61.286 34.526 C61.286 34.802 61.062 35.026 60.786 35.026 60.51 35.026 60.286 34.802 60.286 34.526 60.286 34.25 60.51 34.026 60.786 34.026 61.062 34.026 61.286 34.25 61.286 34.526 Z" fill="#29abe2" fill-opacity="1" stroke="none"/>
  <path id="Path_71" d="M61.286 37.619 C61.286 37.895 61.062 38.119 60.786 38.119 60.51 38.119 60.286 37.895 60.286 37.619 60.286 37.343 60.51 37.119 60.786 37.119 61.062 37.119 61.286 37.343 61.286 37.619 Z" fill="#29abe2" fill-opacity="1" stroke="none"/>
  <path id="Path_72" d="M61.286 40.71 C61.286 40.986 61.062 41.21 60.786 41.21 60.51 41.21 60.286 40.986 60.286 40.71 60.286 40.434 60.51 40.21 60.786 40.21 61.062 40.21 61.286 40.434 61.286 40.71 Z" fill="#29abe2" fill-opacity="1" stroke="none"/>
  <path id="Path_73" d="M61.286 43.803 C61.286 44.079 61.062 44.303 60.786 44.303 60.51 44.303 60.286 44.079 60.286 43.803 60.286 43.527 60.51 43.303 60.786 43.303 61.062 43.303 61.286 43.527 61.286 43.803 Z" fill="#29abe2" fill-opacity="1" stroke="none"/>
  <path id="Path_74" d="M37.242 15.505 L37.242 54.095 48.548 54.095 48.548 2.671 37.243 2.671 Q37.243 9.088 37.243 15.505 Z M43.681 3.205 C44.373 3.139 45.07 3.236 45.717 3.49 46.813 3.999 47.515 5.097 47.517 6.305 47.542 6.512 47.522 6.684 47.266 6.605 L38.281 6.605 C38.162 5.266 38.91 4 40.14 3.458 40.936 3.206 41.775 3.119 42.606 3.203 L43.682 3.203 Z M38.41 3.21 C38.731 3.215 39 3.454 39.042 3.773 39.083 4.091 38.884 4.392 38.575 4.478 38.266 4.565 37.94 4.411 37.81 4.117 37.725 3.916 37.746 3.685 37.867 3.503 37.988 3.32 38.191 3.211 38.41 3.21 Z M47.366 3.21 C47.685 3.213 47.953 3.448 47.999 3.763 48.044 4.078 47.853 4.379 47.548 4.472 47.244 4.565 46.917 4.421 46.779 4.134 46.687 3.933 46.703 3.699 46.821 3.512 46.94 3.326 47.145 3.212 47.366 3.21 Z M38.347 7.582 L39.321 7.582 39.321 47.482 38.275 47.482 38.275 7.582 Z M40.147 7.582 L42.566 7.582 42.566 47.482 40.076 47.482 40.076 7.582 Z M43.69 7.582 L45.716 7.582 45.716 47.482 43.616 47.482 43.616 7.582 Z M46.538 7.582 L47.516 7.582 47.516 47.482 46.467 47.482 46.467 7.582 Z M52.638 7.617 C51.857 7.63 51.075 7.617 50.294 7.622 L50.294 51.361 58.215 51.361 Q58.209 31.935 58.207 12.51 C58.089 10.483 56.803 8.709 54.913 7.966 54.185 7.7 53.412 7.579 52.638 7.612 Z M32.95 7.623 C31.01 7.542 29.186 8.543 28.213 10.223 27.669 11.221 27.431 12.357 27.53 13.489 L27.53 51.361 35.45 51.361 35.45 7.62 C34.617 7.62 33.784 7.62 32.95 7.62 Z M51.924 10.083 C52.168 10.076 52.412 10.093 52.652 10.134 L52.652 13.64 51.122 13.64 51.122 10.087 51.922 10.087 Z M54.871 10.083 C55.501 10.027 56.123 10.263 56.557 10.723 56.964 11.197 57.15 11.822 57.068 12.442 L57.068 13.636 53.991 13.636 53.991 10.087 C54.285 10.092 54.578 10.087 54.871 10.082 Z M33.495 10.083 L34.621 10.083 34.621 13.637 33.091 13.637 33.091 10.131 C33.225 10.106 33.361 10.09 33.497 10.083 Z M30.583 10.088 L31.751 10.088 31.751 13.637 28.673 13.637 C28.64 12.92 28.667 12.202 28.752 11.49 28.996 10.677 29.735 10.113 30.583 10.09 Z M54.872 14.646 C55.478 14.594 56.077 14.81 56.511 15.237 56.944 15.705 57.148 16.34 57.069 16.972 L57.069 18.203 53.991 18.203 53.991 14.653 C54.285 14.658 54.578 14.653 54.871 14.647 Z M51.925 14.646 C52.168 14.64 52.412 14.654 52.653 14.689 L52.653 18.202 51.123 18.202 51.123 14.649 51.923 14.649 Z M30.583 14.646 L31.751 14.646 31.751 18.196 28.673 18.196 C28.635 17.466 28.665 16.734 28.763 16.009 29.02 15.215 29.749 14.669 30.583 14.646 Z M33.463 14.646 L34.622 14.646 34.622 18.199 33.091 18.199 33.091 14.686 C33.218 14.673 33.338 14.647 33.464 14.647 Z M60.899 19.071 C60.421 19.077 59.944 19.071 59.466 19.076 L59.466 49.927 65.153 49.927 C65.153 40.807 65.163 31.688 65.145 22.567 65.027 20.816 63.709 19.383 61.974 19.119 61.617 19.078 61.258 19.062 60.899 19.071 Z M24.234 19.076 C22.521 19.121 21.058 20.324 20.682 21.995 20.581 22.932 20.551 23.875 20.592 24.816 L20.592 49.927 26.28 49.927 26.28 19.083 C25.598 19.083 24.916 19.083 24.234 19.083 Z M54.889 19.204 C55.502 19.154 56.106 19.38 56.536 19.82 56.958 20.297 57.153 20.933 57.07 21.565 L57.07 22.759 53.991 22.759 53.991 19.209 C54.291 19.214 54.591 19.209 54.891 19.204 Z M51.926 19.204 C52.17 19.196 52.414 19.213 52.654 19.253 L52.654 22.753 51.124 22.753 51.124 19.203 Q51.524 19.209 51.924 19.203 Z M30.589 19.204 L31.751 19.204 31.751 22.754 28.673 22.754 C28.639 22.036 28.666 21.316 28.753 20.602 28.998 19.788 29.738 19.223 30.588 19.202 Z M33.452 19.204 L34.622 19.204 34.622 22.754 33.091 22.754 33.091 19.261 C33.213 19.247 33.332 19.223 33.452 19.217 Z M61.052 19.493 C61.777 19.432 62.503 19.602 63.126 19.979 64.064 20.577 64.612 21.63 64.563 22.742 64.624 23.021 64.233 22.849 64.063 22.895 L59.732 22.895 59.732 19.495 C60.172 19.504 60.612 19.495 61.052 19.49 Z M24.227 19.498 L26.011 19.498 26.011 22.898 21.186 22.898 C21.07 21.561 21.817 20.297 23.045 19.755 23.418 19.594 23.819 19.508 24.225 19.501 Z M54.889 23.762 C55.49 23.714 56.082 23.93 56.512 24.353 56.945 24.821 57.149 25.456 57.07 26.088 L57.07 27.323 53.991 27.323 53.991 23.781 C54.291 23.786 54.591 23.781 54.891 23.776 Z M51.926 23.762 C52.169 23.756 52.413 23.77 52.654 23.805 L52.654 27.32 51.124 27.32 51.124 23.781 51.924 23.781 Z M30.591 23.781 L31.755 23.781 31.755 27.335 28.672 27.335 C28.635 26.604 28.665 25.871 28.762 25.145 29.02 24.348 29.754 23.801 30.591 23.781 Z M33.498 23.781 L34.624 23.781 34.624 27.335 33.091 27.335 33.091 23.82 C33.225 23.799 33.361 23.786 33.497 23.781 Z M62.904 24.406 C63.394 24.342 63.885 24.516 64.225 24.874 64.522 25.267 64.644 25.765 64.562 26.25 L64.562 26.907 62.387 26.907 62.387 24.407 C62.559 24.407 62.731 24.407 62.903 24.402 Z M22.52 24.412 L23.359 24.412 23.359 26.912 21.174 26.912 C21.234 26.265 21.019 25.521 21.45 24.964 21.702 24.628 22.095 24.426 22.515 24.416 Z M24.712 24.824 C25.034 24.812 25.315 25.04 25.371 25.357 25.426 25.675 25.239 25.984 24.933 26.083 24.626 26.181 24.294 26.038 24.154 25.748 24.062 25.552 24.075 25.323 24.187 25.137 24.299 24.952 24.496 24.834 24.712 24.824 Z M60.828 24.824 C61.151 24.812 61.433 25.04 61.488 25.358 61.543 25.676 61.355 25.986 61.047 26.084 60.739 26.181 60.406 26.035 60.269 25.743 60.18 25.547 60.193 25.319 60.305 25.135 60.417 24.951 60.613 24.835 60.828 24.824 Z M62.913 27.491 C63.414 27.427 63.915 27.614 64.252 27.991 64.533 28.393 64.645 28.889 64.564 29.373 64.54 29.567 64.612 29.859 64.528 29.992 L62.389 29.992 62.389 27.492 C62.564 27.492 62.739 27.492 62.913 27.487 Z M22.5 27.496 L23.36 27.496 23.36 29.996 21.174 29.996 C21.235 29.357 21.023 28.629 21.434 28.073 21.681 27.73 22.072 27.519 22.495 27.501 Z M24.714 27.925 C25.033 27.914 25.313 28.138 25.371 28.452 25.429 28.766 25.249 29.075 24.947 29.179 24.645 29.284 24.313 29.151 24.165 28.868 24.065 28.671 24.072 28.438 24.183 28.247 24.294 28.057 24.494 27.935 24.714 27.925 Z M60.83 27.925 C61.148 27.913 61.427 28.136 61.486 28.449 61.546 28.761 61.367 29.07 61.067 29.176 60.767 29.282 60.434 29.152 60.285 28.871 60.184 28.675 60.19 28.441 60.3 28.25 60.41 28.059 60.61 27.936 60.83 27.925 Z M54.888 28.341 C55.5 28.291 56.103 28.515 56.534 28.952 56.959 29.429 57.155 30.068 57.072 30.702 L57.072 31.902 53.991 31.902 53.991 28.348 C54.291 28.353 54.586 28.348 54.884 28.343 Z M51.929 28.341 C52.172 28.335 52.416 28.349 52.657 28.385 L52.657 31.899 51.127 31.899 51.127 28.344 51.927 28.344 Z M30.592 28.341 L31.751 28.341 31.751 31.895 28.673 31.895 C28.64 31.175 28.667 30.454 28.753 29.738 28.999 28.925 29.738 28.36 30.588 28.338 Z M33.498 28.341 L34.624 28.341 34.624 31.895 33.091 31.895 33.091 28.382 C33.225 28.361 33.361 28.347 33.497 28.341 Z M62.913 30.573 C63.415 30.508 63.916 30.695 64.253 31.073 64.533 31.475 64.644 31.97 64.564 32.453 64.54 32.647 64.612 32.939 64.528 33.073 L62.389 33.073 62.389 30.573 C62.564 30.573 62.739 30.573 62.913 30.568 Z M22.52 30.578 L23.359 30.578 23.359 33.078 21.174 33.078 C21.235 32.428 21.017 31.678 21.459 31.119 21.712 30.79 22.1 30.593 22.515 30.583 Z M24.714 31.022 C25.033 31.011 25.313 31.235 25.371 31.549 25.429 31.863 25.249 32.172 24.947 32.276 24.645 32.38 24.313 32.248 24.165 31.965 24.065 31.768 24.072 31.535 24.183 31.344 24.294 31.154 24.494 31.032 24.714 31.022 Z M60.808 31.022 C61.129 30.999 61.418 31.217 61.485 31.532 61.551 31.848 61.375 32.164 61.072 32.272 60.768 32.381 60.431 32.25 60.282 31.964 60.184 31.771 60.189 31.542 60.294 31.353 60.4 31.164 60.592 31.04 60.808 31.022 Z M54.875 32.902 C55.481 32.85 56.08 33.066 56.514 33.493 56.947 33.961 57.151 34.596 57.072 35.228 L57.072 36.461 53.991 36.461 53.991 32.908 C54.284 32.908 54.577 32.908 54.87 32.902 Z M51.928 32.902 C52.172 32.894 52.416 32.911 52.656 32.951 L52.656 36.461 51.126 36.461 51.126 32.908 51.926 32.908 Z M30.586 32.902 L31.756 32.902 31.756 36.461 28.673 36.461 C28.635 35.729 28.665 34.996 28.763 34.27 29.02 33.477 29.748 32.931 30.581 32.908 Z M33.463 32.902 L34.624 32.902 34.624 36.461 33.091 36.461 33.091 32.95 C33.217 32.939 33.338 32.912 33.461 32.908 Z M62.905 33.653 C63.395 33.589 63.886 33.763 64.226 34.121 64.523 34.514 64.645 35.012 64.563 35.498 L64.563 36.161 62.39 36.161 62.39 33.661 C62.561 33.661 62.734 33.661 62.905 33.655 Z M22.521 33.659 L23.36 33.659 23.36 36.161 21.174 36.161 C21.235 35.524 21.024 34.798 21.43 34.241 21.681 33.889 22.083 33.675 22.515 33.665 Z M24.715 34.117 C25.034 34.106 25.314 34.33 25.372 34.644 25.43 34.958 25.25 35.267 24.948 35.371 24.646 35.476 24.314 35.343 24.166 35.06 24.067 34.863 24.074 34.63 24.185 34.44 24.296 34.249 24.495 34.128 24.715 34.117 Z M60.809 34.117 C61.13 34.094 61.419 34.312 61.486 34.627 61.552 34.943 61.376 35.259 61.073 35.367 60.769 35.476 60.432 35.345 60.283 35.059 60.185 34.866 60.189 34.637 60.294 34.448 60.4 34.258 60.593 34.134 60.809 34.117 Z M74.829 35.122 C72.212 35.137 69.595 35.122 66.978 35.128 L66.978 38.279 77.013 38.279 C77.13 37.516 77.006 36.734 76.658 36.045 76.245 35.447 75.556 35.1 74.83 35.122 Z M10.775 35.13 C9.648 35.161 8.748 36.08 8.741 37.208 8.727 37.566 8.746 37.922 8.741 38.279 L18.768 38.279 18.768 35.128 Q14.768 35.128 10.768 35.128 Z M62.916 36.738 C63.413 36.675 63.91 36.859 64.247 37.23 64.534 37.633 64.649 38.134 64.567 38.622 64.543 38.815 64.615 39.105 64.531 39.238 L62.392 39.238 62.392 36.738 C62.566 36.738 62.741 36.738 62.916 36.733 Z M22.503 36.744 L23.363 36.744 23.363 39.244 21.174 39.244 C21.234 38.607 21.024 37.878 21.433 37.324 21.679 36.978 22.072 36.765 22.496 36.748 Z M24.695 37.217 C25.016 37.195 25.304 37.413 25.371 37.728 25.437 38.043 25.26 38.359 24.957 38.468 24.654 38.576 24.317 38.445 24.168 38.16 24.07 37.967 24.074 37.737 24.18 37.548 24.286 37.359 24.479 37.234 24.695 37.217 Z M60.81 37.217 C61.131 37.194 61.42 37.412 61.487 37.727 61.553 38.043 61.377 38.359 61.074 38.467 60.77 38.576 60.433 38.445 60.284 38.159 60.186 37.966 60.191 37.737 60.296 37.548 60.402 37.359 60.594 37.235 60.81 37.217 Z M54.894 37.46 C55.507 37.41 56.111 37.636 56.541 38.076 56.963 38.553 57.158 39.189 57.075 39.821 L57.075 41.021 53.991 41.021 53.991 37.468 C54.291 37.473 54.591 37.468 54.891 37.462 Z M30.594 37.466 L31.758 37.466 31.758 41.019 28.672 41.019 C28.638 40.299 28.665 39.577 28.752 38.862 28.997 38.048 29.737 37.484 30.587 37.462 Z M51.931 37.466 C52.174 37.46 52.418 37.474 52.659 37.509 L52.659 41.019 51.129 41.019 51.129 37.469 51.929 37.469 Z M33.501 37.466 L34.627 37.466 34.627 41.016 33.091 41.016 33.091 37.506 C33.225 37.484 33.361 37.47 33.497 37.465 Z M78.73 39.393 C74.813 39.408 70.895 39.393 66.979 39.399 L66.979 42.561 80.914 42.561 C81.032 41.799 80.908 41.02 80.56 40.332 80.146 39.734 79.457 39.386 78.73 39.409 Z M6.874 39.401 C5.747 39.432 4.848 40.351 4.84 41.478 4.827 41.834 4.845 42.191 4.84 42.546 L18.768 42.546 18.768 39.4 Q12.817 39.4 6.868 39.4 Z M62.916 39.821 C63.401 39.76 63.887 39.932 64.225 40.285 64.525 40.68 64.649 41.181 64.567 41.67 L64.567 42.322 62.392 42.322 62.392 39.822 C62.566 39.822 62.741 39.822 62.916 39.817 Z M22.522 39.826 L23.363 39.826 23.363 42.326 21.174 42.326 C21.234 41.677 21.018 40.926 21.458 40.371 21.71 40.041 22.099 39.842 22.514 39.831 Z M24.695 40.314 C25.016 40.292 25.304 40.51 25.371 40.825 25.437 41.14 25.26 41.456 24.957 41.565 24.654 41.673 24.317 41.542 24.168 41.257 24.07 41.064 24.074 40.834 24.18 40.645 24.286 40.456 24.479 40.331 24.695 40.314 Z M60.81 40.314 C61.131 40.291 61.42 40.509 61.487 40.824 61.553 41.14 61.377 41.456 61.074 41.564 60.77 41.673 60.433 41.542 60.284 41.256 60.186 41.063 60.191 40.834 60.296 40.645 60.402 40.456 60.594 40.332 60.81 40.314 Z M54.895 42.022 C55.497 41.974 56.089 42.19 56.518 42.615 56.956 43.094 57.16 43.742 57.075 44.386 L57.075 45.586 53.991 45.586 53.991 42.041 C54.291 42.041 54.591 42.041 54.891 42.035 Z M51.931 42.022 C52.175 42.015 52.419 42.032 52.659 42.073 L52.659 45.58 51.129 45.58 51.129 42.041 Q51.529 42.047 51.929 42.041 Z M30.591 42.041 L31.755 42.041 31.755 45.595 28.672 45.595 C28.639 44.876 28.666 44.156 28.752 43.441 28.999 42.626 29.74 42.062 30.591 42.041 Z M33.498 42.041 L34.624 42.041 34.624 45.595 33.091 45.595 33.091 42.088 C33.225 42.063 33.361 42.047 33.497 42.041 Z M62.913 42.922 C63.415 42.857 63.916 43.044 64.253 43.422 64.533 43.824 64.644 44.319 64.564 44.802 64.54 44.995 64.612 45.285 64.528 45.419 L62.389 45.419 62.389 42.926 C62.563 42.926 62.738 42.926 62.913 42.921 Z M22.519 42.927 L23.36 42.927 23.36 45.419 21.174 45.419 C21.234 44.769 21.018 44.019 21.459 43.463 21.712 43.135 22.1 42.939 22.514 42.928 Z M24.692 43.427 C25.013 43.405 25.301 43.623 25.367 43.938 25.434 44.253 25.257 44.569 24.954 44.677 24.651 44.786 24.314 44.655 24.165 44.37 24.067 44.177 24.071 43.947 24.177 43.758 24.283 43.568 24.476 43.444 24.692 43.427 Z M60.829 43.427 C61.144 43.415 61.422 43.632 61.486 43.94 61.55 44.249 61.382 44.559 61.088 44.673 60.794 44.787 60.461 44.672 60.3 44.401 60.189 44.205 60.187 43.965 60.294 43.767 60.402 43.569 60.604 43.44 60.829 43.427 Z M82.129 43.677 C77.174 43.692 72.216 43.677 67.261 43.683 66.961 43.594 66.939 43.79 66.974 44.041 L66.974 46.829 84.309 46.829 C84.424 46.072 84.303 45.299 83.964 44.613 83.553 44.007 82.86 43.654 82.128 43.677 Z M5.339 43.685 C4.62 43.7 3.894 43.656 3.18 43.708 2.147 43.885 1.401 44.795 1.431 45.843 1.425 46.173 1.431 46.501 1.431 46.831 L18.77 46.831 18.77 43.685 Q12.052 43.685 5.337 43.685 Z M60.254 48.091 C60.327 48.085 60.399 48.109 60.454 48.158 60.465 48.058 60.662 48.121 60.754 48.097 60.914 48.085 61.072 48.139 61.192 48.246 61.312 48.353 61.382 48.504 61.388 48.665 61.417 48.992 61.366 49.322 61.394 49.649 L59.562 49.649 C59.618 49.229 59.468 48.769 59.651 48.377 59.787 48.183 60.015 48.074 60.251 48.09 Z M21.422 48.266 C21.498 48.26 21.574 48.281 21.636 48.327 21.644 48.227 21.826 48.294 21.914 48.266 22.084 48.248 22.253 48.304 22.379 48.418 22.505 48.533 22.577 48.695 22.576 48.866 22.599 49.185 22.561 49.506 22.581 49.827 L20.748 49.827 C20.804 49.405 20.648 48.943 20.839 48.548 20.97 48.359 21.191 48.253 21.42 48.27 Z M62.05 48.417 C62.226 48.41 62.386 48.517 62.447 48.682 62.509 48.847 62.457 49.033 62.319 49.142 62.182 49.252 61.989 49.26 61.842 49.164 61.695 49.067 61.627 48.887 61.673 48.717 61.721 48.546 61.873 48.425 62.05 48.417 Z M63.25 48.417 C63.423 48.41 63.582 48.514 63.645 48.676 63.708 48.837 63.662 49.021 63.53 49.134 63.398 49.246 63.209 49.262 63.059 49.174 62.91 49.086 62.833 48.913 62.867 48.743 62.905 48.56 63.062 48.425 63.249 48.416 Z M64.45 48.417 C64.625 48.409 64.785 48.514 64.848 48.677 64.911 48.841 64.862 49.026 64.726 49.137 64.591 49.248 64.399 49.259 64.251 49.165 64.104 49.072 64.033 48.894 64.075 48.724 64.117 48.549 64.27 48.423 64.45 48.417 Z M23.25 48.587 C23.422 48.587 23.575 48.695 23.633 48.857 23.69 49.019 23.64 49.2 23.507 49.309 23.374 49.418 23.188 49.431 23.04 49.343 22.893 49.255 22.817 49.084 22.85 48.915 22.89 48.725 23.056 48.589 23.25 48.587 Z M24.457 48.587 C24.631 48.592 24.782 48.707 24.834 48.873 24.886 49.039 24.827 49.22 24.687 49.323 24.547 49.426 24.357 49.43 24.214 49.331 24.07 49.233 24.005 49.055 24.051 48.887 24.104 48.707 24.27 48.585 24.457 48.587 Z M25.657 48.587 C25.831 48.589 25.984 48.701 26.039 48.866 26.094 49.031 26.039 49.213 25.901 49.319 25.763 49.424 25.573 49.431 25.428 49.336 25.282 49.24 25.214 49.063 25.257 48.894 25.305 48.713 25.469 48.586 25.657 48.587 Z M52.081 49.101 C52.461 49.053 52.819 49.287 52.927 49.654 53.017 50.069 52.911 50.496 52.964 50.916 52.978 50.987 52.953 51.061 52.898 51.108 52.843 51.155 52.766 51.168 52.698 51.143 L51.758 51.143 51.758 49.113 C51.867 49.113 51.974 49.104 52.081 49.102 Z M51.512 49.101 C51.582 49.09 51.652 49.117 51.697 49.171 51.742 49.226 51.755 49.3 51.731 49.367 L51.731 51.14 50.531 51.14 C50.511 50.621 50.527 50.102 50.579 49.585 50.697 49.271 51.013 49.077 51.347 49.115 51.402 49.106 51.457 49.101 51.512 49.101 Z M29.412 49.223 C29.811 49.164 30.191 49.415 30.292 49.805 30.362 50.227 30.276 50.657 30.32 51.081 30.331 51.247 30.153 51.313 30.02 51.266 L29.12 51.266 29.12 49.231 C29.22 49.237 29.32 49.223 29.42 49.222 Z M28.789 49.223 C28.961 49.187 29.164 49.323 29.1 49.513 29.071 50.092 29.1 50.681 29.087 51.263 L27.887 51.263 C27.863 50.737 27.882 50.21 27.943 49.687 28.09 49.36 28.436 49.171 28.79 49.223 Z M53.75 49.397 C54.018 49.404 54.233 49.62 54.237 49.888 54.242 50.156 54.034 50.38 53.767 50.396 53.499 50.412 53.267 50.214 53.24 49.947 53.228 49.805 53.276 49.664 53.373 49.559 53.47 49.454 53.607 49.395 53.75 49.397 Z M55.378 49.397 C55.65 49.403 55.867 49.625 55.868 49.896 55.868 50.168 55.651 50.391 55.379 50.397 55.107 50.403 54.88 50.191 54.868 49.919 54.865 49.783 54.916 49.651 55.011 49.553 55.106 49.455 55.236 49.4 55.372 49.399 Z M57.002 49.397 C57.268 49.4 57.485 49.61 57.496 49.876 57.507 50.142 57.308 50.37 57.044 50.395 56.779 50.42 56.541 50.233 56.502 49.97 56.483 49.826 56.527 49.68 56.623 49.571 56.718 49.461 56.857 49.398 57.002 49.397 Z M31.102 49.519 C31.374 49.525 31.591 49.748 31.591 50.02 31.59 50.292 31.372 50.514 31.1 50.519 30.827 50.524 30.601 50.31 30.591 50.038 30.588 49.901 30.641 49.769 30.737 49.671 30.833 49.573 30.965 49.518 31.102 49.519 Z M32.729 49.519 C32.999 49.524 33.216 49.743 33.22 50.013 33.223 50.282 33.012 50.506 32.742 50.518 32.472 50.53 32.242 50.326 32.221 50.057 32.213 49.917 32.263 49.781 32.359 49.679 32.455 49.577 32.589 49.519 32.729 49.519 Z M34.356 49.519 C34.626 49.52 34.846 49.735 34.853 50.005 34.861 50.274 34.654 50.501 34.385 50.518 34.116 50.535 33.882 50.335 33.856 50.067 33.846 49.928 33.893 49.791 33.987 49.688 34.08 49.585 34.212 49.524 34.351 49.521 Z M39.126 51.363 C39.195 51.352 39.265 51.379 39.31 51.433 39.355 51.487 39.368 51.561 39.345 51.627 L39.345 54.006 37.834 54.006 C37.847 53.406 37.818 52.815 37.842 52.214 37.868 51.965 37.993 51.736 38.19 51.58 38.386 51.424 38.637 51.354 38.886 51.385 38.966 51.376 39.046 51.365 39.127 51.363 Z M39.839 51.363 C40.266 51.303 40.686 51.512 40.896 51.889 41.005 52.34 41.038 52.805 40.996 53.267 L40.996 54.001 39.483 54.001 39.483 51.371 C39.602 51.371 39.721 51.362 39.841 51.362 Z M42.339 51.845 C42.665 51.832 42.95 52.064 43.002 52.387 43.055 52.709 42.859 53.019 42.545 53.111 42.232 53.202 41.9 53.045 41.771 52.745 41.691 52.549 41.71 52.327 41.823 52.148 41.936 51.97 42.128 51.857 42.339 51.845 Z M44.624 51.845 C44.95 51.834 45.233 52.067 45.284 52.389 45.335 52.711 45.138 53.021 44.825 53.111 44.512 53.202 44.18 53.045 44.052 52.745 43.974 52.551 43.993 52.33 44.105 52.153 44.217 51.975 44.407 51.862 44.616 51.849 Z M46.911 51.845 C47.237 51.835 47.519 52.068 47.57 52.39 47.621 52.712 47.424 53.021 47.111 53.111 46.798 53.202 46.466 53.045 46.338 52.745 46.258 52.549 46.278 52.326 46.392 52.147 46.506 51.968 46.699 51.856 46.911 51.845 Z" fill="#29abe2" fill-opacity="1" stroke="none"/>
  <path id="Path_75" d="M38.764 51.227 C38.551 51.225 38.347 51.309 38.196 51.459 38.046 51.61 37.962 51.814 37.964 52.027 L37.964 52.661 39.186 52.661 39.186 51.227 Z M37.964 52.845 L37.964 53.568 39.186 53.568 39.186 52.845 Z" fill="#29abe2" fill-opacity="1" stroke="none"/>
  <path id="Path_76" d="M40.039 51.227 C40.252 51.225 40.456 51.309 40.607 51.459 40.757 51.61 40.841 51.814 40.839 52.027 L40.839 52.661 39.612 52.661 39.612 51.227 Z M40.839 52.845 L40.839 53.568 39.612 53.568 39.612 52.845 Z" fill="#29abe2" fill-opacity="1" stroke="none"/>
  <path id="Path_77" d="M28.642 49.092 C28.485 49.092 28.335 49.154 28.224 49.265 28.113 49.376 28.051 49.526 28.051 49.683 L28.051 50.156 28.96 50.156 28.96 49.092 Z M28.051 50.292 L28.051 50.83 28.96 50.83 28.96 50.292 Z" fill="#29abe2" fill-opacity="1" stroke="none"/>
  <path id="Path_78" d="M29.591 49.092 C29.748 49.092 29.898 49.154 30.009 49.265 30.12 49.376 30.182 49.526 30.182 49.683 L30.182 50.156 29.273 50.156 29.273 49.092 Z M30.182 50.292 L30.182 50.83 29.273 50.83 29.273 50.292 Z" fill="#29abe2" fill-opacity="1" stroke="none"/>
  <path id="Path_79" d="M21.363 48.142 C21.25 48.142 21.141 48.187 21.061 48.266 20.982 48.346 20.937 48.455 20.937 48.568 L20.937 48.908 21.591 48.908 21.591 48.142 Z M20.937 49.009 L20.937 49.396 21.591 49.396 21.591 49.012 Z" fill="#29abe2" fill-opacity="1" stroke="none"/>
  <path id="Path_80" d="M22.046 48.142 C22.159 48.142 22.268 48.187 22.348 48.266 22.427 48.346 22.472 48.455 22.472 48.568 L22.472 48.908 21.818 48.908 21.818 48.142 Z M22.472 49.009 L22.472 49.396 21.818 49.396 21.818 49.012 Z" fill="#29abe2" fill-opacity="1" stroke="none"/>
  <path id="Path_81" d="M42.841 52.203 C42.841 52.479 42.617 52.703 42.341 52.703 42.065 52.703 41.841 52.479 41.841 52.203 41.841 51.927 42.065 51.703 42.341 51.703 42.617 51.703 42.841 51.927 42.841 52.203 Z" fill="#29abe2" fill-opacity="1" stroke="none"/>
  <path id="Path_82" d="M45.119 52.203 C45.119 52.479 44.895 52.703 44.619 52.703 44.343 52.703 44.119 52.479 44.119 52.203 44.119 51.927 44.343 51.703 44.619 51.703 44.895 51.703 45.119 51.927 45.119 52.203 Z" fill="#29abe2" fill-opacity="1" stroke="none"/>
  <path id="Path_83" d="M47.398 52.203 C47.398 52.479 47.174 52.703 46.898 52.703 46.622 52.703 46.398 52.479 46.398 52.203 46.398 51.927 46.622 51.703 46.898 51.703 47.174 51.703 47.398 51.927 47.398 52.203 Z" fill="#29abe2" fill-opacity="1" stroke="none"/>
  <path id="Path_84" d="M31.461 49.739 C31.462 49.866 31.394 49.984 31.284 50.048 31.174 50.112 31.038 50.112 30.928 50.048 30.818 49.984 30.75 49.866 30.751 49.739 30.75 49.612 30.818 49.494 30.928 49.43 31.038 49.366 31.174 49.366 31.284 49.43 31.394 49.494 31.462 49.612 31.461 49.739 Z" fill="#29abe2" fill-opacity="1" stroke="none"/>
  <path id="Path_85" d="M33.084 49.739 C33.085 49.866 33.017 49.984 32.907 50.048 32.797 50.112 32.661 50.112 32.551 50.048 32.441 49.984 32.373 49.866 32.374 49.739 32.375 49.544 32.534 49.386 32.729 49.386 32.924 49.386 33.083 49.544 33.084 49.739 Z" fill="#29abe2" fill-opacity="1" stroke="none"/>
  <path id="Path_86" d="M34.707 49.739 C34.708 49.866 34.64 49.984 34.53 50.048 34.42 50.112 34.284 50.112 34.174 50.048 34.064 49.984 33.996 49.866 33.997 49.739 33.996 49.612 34.064 49.494 34.174 49.43 34.284 49.366 34.42 49.366 34.53 49.43 34.64 49.494 34.708 49.612 34.707 49.739 Z" fill="#29abe2" fill-opacity="1" stroke="none"/>
  <path id="Path_87" d="M23.542 48.711 C23.542 48.856 23.424 48.974 23.28 48.974 23.135 48.974 23.017 48.856 23.017 48.711 23.017 48.566 23.135 48.448 23.28 48.448 23.424 48.448 23.542 48.566 23.542 48.711 Z" fill="#29abe2" fill-opacity="1" stroke="none"/>
  <path id="Path_88" d="M24.741 48.711 C24.741 48.856 24.623 48.974 24.479 48.974 24.334 48.974 24.216 48.856 24.216 48.711 24.216 48.566 24.334 48.448 24.479 48.448 24.623 48.448 24.741 48.566 24.741 48.711 Z" fill="#29abe2" fill-opacity="1" stroke="none"/>
  <path id="Path_89" d="M25.939 48.711 C25.939 48.856 25.821 48.974 25.677 48.974 25.532 48.974 25.414 48.856 25.414 48.711 25.414 48.566 25.532 48.448 25.677 48.448 25.821 48.448 25.939 48.566 25.939 48.711 Z" fill="#29abe2" fill-opacity="1" stroke="none"/>
  <path id="Path_90" d="M60.085 47.969 C59.972 47.969 59.863 48.014 59.783 48.094 59.703 48.173 59.659 48.282 59.659 48.395 L59.659 48.735 60.313 48.735 60.313 47.969 Z M59.659 48.836 L59.659 49.223 60.313 49.223 60.313 48.836 Z" fill="#29abe2" fill-opacity="1" stroke="none"/>
  <path id="Path_91" d="M60.764 47.969 C60.877 47.969 60.986 48.014 61.066 48.094 61.146 48.173 61.19 48.282 61.19 48.395 L61.19 48.735 60.536 48.735 60.536 47.969 Z M61.19 48.836 L61.19 49.223 60.536 49.223 60.536 48.836 Z" fill="#29abe2" fill-opacity="1" stroke="none"/>
  <path id="Path_92" d="M62.256 48.539 C62.256 48.684 62.138 48.802 61.993 48.802 61.849 48.802 61.731 48.684 61.731 48.539 61.731 48.394 61.849 48.276 61.993 48.276 62.138 48.276 62.256 48.394 62.256 48.539 Z" fill="#29abe2" fill-opacity="1" stroke="none"/>
  <path id="Path_93" d="M63.459 48.539 C63.459 48.684 63.341 48.802 63.196 48.802 63.052 48.802 62.934 48.684 62.934 48.539 62.934 48.394 63.052 48.276 63.196 48.276 63.341 48.276 63.459 48.394 63.459 48.539 Z" fill="#29abe2" fill-opacity="1" stroke="none"/>
  <path id="Path_94" d="M64.652 48.539 C64.652 48.684 64.534 48.802 64.39 48.802 64.245 48.802 64.127 48.684 64.127 48.539 64.127 48.394 64.245 48.276 64.39 48.276 64.534 48.276 64.652 48.394 64.652 48.539 Z" fill="#29abe2" fill-opacity="1" stroke="none"/>
  <path id="Path_95" d="M51.227 48.969 C51.07 48.969 50.92 49.031 50.809 49.142 50.698 49.253 50.636 49.403 50.636 49.56 L50.636 50.033 51.545 50.033 51.545 48.969 Z M50.636 50.169 L50.636 50.707 51.545 50.707 51.545 50.169 Z" fill="#29abe2" fill-opacity="1" stroke="none"/>
  <path id="Path_96" d="M52.178 48.969 C52.335 48.969 52.485 49.031 52.596 49.142 52.707 49.253 52.769 49.403 52.769 49.56 L52.769 50.033 51.86 50.033 51.86 48.969 Z M52.769 50.169 L52.769 50.707 51.86 50.707 51.86 50.169 Z" fill="#29abe2" fill-opacity="1" stroke="none"/>
  <path id="Path_97" d="M54.045 49.615 C54.044 49.81 53.885 49.968 53.69 49.968 53.495 49.968 53.336 49.81 53.335 49.615 53.336 49.42 53.495 49.262 53.69 49.262 53.885 49.262 54.044 49.42 54.045 49.615 Z" fill="#29abe2" fill-opacity="1" stroke="none"/>
  <path id="Path_98" d="M55.668 49.61 C55.669 49.737 55.601 49.855 55.491 49.919 55.381 49.983 55.245 49.983 55.135 49.919 55.025 49.855 54.957 49.737 54.958 49.61 54.959 49.415 55.118 49.257 55.313 49.257 55.508 49.257 55.667 49.415 55.668 49.61 Z" fill="#29abe2" fill-opacity="1" stroke="none"/>
  <path id="Path_99" d="M57.291 49.615 C57.292 49.742 57.224 49.86 57.114 49.924 57.004 49.988 56.868 49.988 56.758 49.924 56.648 49.86 56.58 49.742 56.581 49.615 56.58 49.488 56.648 49.37 56.758 49.306 56.868 49.242 57.004 49.242 57.114 49.306 57.224 49.37 57.292 49.488 57.291 49.615 Z" fill="#29abe2" fill-opacity="1" stroke="none"/>
 </g>
</svg>
